<?xml version="1.0" encoding="UTF-8"?>
<svg version="1.1" xmlns="http://www.w3.org/2000/svg" width="1024" height="1024">
<path d="M0 0 C1.51002342 -0.00262848 1.51002342 -0.00262848 3.05055237 -0.00531006 C6.38910646 -0.00971557 9.72760743 -0.00678474 13.06616211 -0.00341797 C15.43786123 -0.00409381 17.80956027 -0.00506616 20.18125916 -0.00631714 C25.1856247 -0.00779436 30.18997246 -0.00564771 35.19433594 -0.00097656 C41.4313488 0.00457688 47.66831761 0.00144603 53.90532875 -0.00442886 C87.87428978 -0.03130928 121.82068764 0.36692886 155.78100586 1.12939453 C156.11100586 3.10939453 156.44100586 5.08939453 156.78100586 7.12939453 C155.70850586 7.52126953 154.63600586 7.91314453 153.53100586 8.31689453 C151.94734226 8.92019495 150.36405038 9.52447151 148.78100586 10.12939453 C147.8515918 10.46970703 146.92217773 10.81001953 145.96459961 11.16064453 C137.46322075 14.44148957 128.00703934 18.74780603 123.15600586 26.87939453 C122.1195756 29.32913879 121.1999994 31.51068491 120.78100586 34.12939453 C120.45100586 33.79939453 120.12100586 33.46939453 119.78100586 33.12939453 C114.51738543 45.94516601 115.63180322 60.70724185 115.66748047 74.35791016 C115.66776351 75.90704852 115.66760234 77.45618703 115.66703796 79.00532532 C115.66675453 83.15508408 115.67257685 87.30481311 115.67961192 91.45456505 C115.68592202 95.81203429 115.68645525 100.16950443 115.68763733 104.52697754 C115.6907283 112.75358037 115.69891115 120.98016969 115.70898682 129.20676661 C115.72021787 138.58301543 115.72567592 147.95926495 115.73068225 157.33551884 C115.74109597 176.60015169 115.75865153 195.86477202 115.78100586 215.12939453 C117.54147515 214.82307961 119.30127792 214.51293239 121.06079102 214.20117188 C122.04085114 214.02887054 123.02091125 213.85656921 124.03067017 213.67904663 C127.25235746 213.03519534 130.13966187 212.05183564 133.15600586 210.75439453 C134.11249023 210.35478516 135.06897461 209.95517578 136.05444336 209.54345703 C138.95498836 208.03916292 141.2464548 206.17619693 143.78100586 204.12939453 C144.44100586 204.12939453 145.10100586 204.12939453 145.78100586 204.12939453 C146.21413086 203.26314453 146.21413086 203.26314453 146.65600586 202.37939453 C147.33810293 201.01520039 148.05380872 199.66624042 148.82788086 198.35205078 C150.94257926 193.42064345 150.5747773 187.1684052 149.23413086 182.03564453 C145.70611944 174.71335667 136.92322515 170.3245979 129.78100586 167.12939453 C135.00062681 163.64964723 141.77464812 165.11904773 147.78100586 166.12939453 C159.75351392 169.2931823 169.28144947 175.48774797 175.78100586 186.12939453 C178.90586743 192.37911768 178.73618912 200.148511 177.12866211 206.84814453 C174.89600819 213.05741381 171.44146431 217.52881349 166.78100586 222.12939453 C166.29245117 222.65146484 165.80389648 223.17353516 165.30053711 223.71142578 C152.85715969 235.83492203 131.33540521 239.95460089 114.78100586 242.12939453 C114.62245117 243.05494141 114.46389648 243.98048828 114.30053711 244.93408203 C113.644702 248.72990291 112.96812751 252.52183086 112.28588867 256.31298828 C111.93540623 258.26809729 111.58866524 260.22387925 111.24487305 262.18017578 C108.70841252 276.53154828 105.76029155 290.41468889 100.78100586 304.12939453 C100.54269043 304.78939453 100.304375 305.44939453 100.05883789 306.12939453 C91.56135642 329.27147174 78.87049277 351.16788949 60.78100586 368.12939453 C58.72303713 370.0917608 57.39099649 371.71440859 55.78100586 374.12939453 C53.25867114 376.31409389 50.49557036 378.19162609 47.78100586 380.12939453 C46.83870117 380.81388672 45.89639648 381.49837891 44.92553711 382.20361328 C24.53163891 396.72001535 2.82592818 405.65972599 -21.18212891 412.50024414 C-23.25727995 413.08048431 -23.25727995 413.08048431 -25.21899414 414.12939453 C-26.75638662 414.3149419 -28.29966997 414.45258655 -29.84399414 414.56689453 C-34.5149532 414.94956088 -39.13702874 415.50301808 -43.78149414 416.12939453 C-75.37478716 420.16817121 -110.25252385 418.88370146 -140.11743164 406.86376953 C-142.31997555 405.96445382 -142.31997555 405.96445382 -145.21899414 406.12939453 C-145.21899414 405.46939453 -145.21899414 404.80939453 -145.21899414 404.12939453 C-146.4700293 403.75621094 -146.4700293 403.75621094 -147.74633789 403.37548828 C-169.71668712 395.49186465 -188.00330992 377.80692403 -198.21899414 357.12939453 C-204.60570634 342.66200346 -204.83134796 326.0875142 -200.21899414 311.12939453 C-197.77796693 305.18537361 -194.78248718 299.47463409 -191.21899414 294.12939453 C-190.55899414 294.12939453 -189.89899414 294.12939453 -189.21899414 294.12939453 C-188.98051758 293.55060547 -188.74204102 292.97181641 -188.49633789 292.37548828 C-183.71099802 283.96089982 -172.82460584 279.22751203 -163.98071289 276.41845703 C-148.70925099 272.56569333 -134.26372047 273.68450837 -120.39086914 281.14501953 C-110.02800067 287.6281934 -104.16922749 297.41098514 -101.21899414 309.12939453 C-100.75986514 311.80393239 -100.46500564 314.42326802 -100.21899414 317.12939453 C-101.53899414 317.45939453 -102.85899414 317.78939453 -104.21899414 318.12939453 C-103.88899414 317.46939453 -103.55899414 316.80939453 -103.21899414 316.12939453 C-105.99127004 311.3312247 -108.0624757 309.15858003 -113.21899414 307.12939453 C-116.02337718 306.69873396 -118.76038164 306.6517992 -121.59399414 306.69189453 C-122.72780518 306.70542969 -122.72780518 306.70542969 -123.88452148 306.71923828 C-131.88089584 306.96842199 -136.39654701 308.99542197 -141.96899414 314.75439453 C-147.88153555 322.1010993 -149.89340169 329.33763026 -149.62524414 338.72314453 C-148.94363568 344.43816931 -147.19389194 349.74250812 -145.21899414 355.12939453 C-144.55899414 355.12939453 -143.89899414 355.12939453 -143.21899414 355.12939453 C-143.11264648 356.20640625 -143.11264648 356.20640625 -143.00415039 357.30517578 C-141.99708802 360.92759415 -140.25624265 362.62763982 -137.65649414 365.31689453 C-133.21899414 369.93438673 -133.21899414 369.93438673 -133.21899414 372.12939453 C-132.68661133 372.37947266 -132.15422852 372.62955078 -131.60571289 372.88720703 C-128.63694886 374.43232481 -125.85901503 376.21396912 -123.03149414 378.00439453 C-100.67091284 391.83440321 -75.57293579 393.54258023 -50.21899414 388.12939453 C-31.79946826 383.40280235 -16.55737717 373.59833269 -3.21899414 360.12939453 C-2.65696289 359.61376953 -2.09493164 359.09814453 -1.51586914 358.56689453 C8.66409827 349.1067228 15.13623363 336.63769664 20.78100586 324.12939453 C21.08780273 323.45875977 21.39459961 322.788125 21.71069336 322.09716797 C37.02756094 287.94513524 37.91969358 248.61394511 37.94213867 211.76977539 C37.94678633 209.94380599 37.95181346 208.11783753 37.95718384 206.29187012 C37.97010388 201.40610045 37.97670945 196.52034436 37.9811945 191.63456035 C37.98415256 188.5717716 37.98826159 185.50898636 37.99269867 182.44619942 C38.00630612 172.83112769 38.01601124 163.21606423 38.01990056 153.60098356 C38.02439552 142.55661164 38.04203816 131.51236258 38.07090116 120.46802801 C38.09254959 111.88319683 38.10260617 103.29840021 38.10394168 94.71354204 C38.1049854 89.60495357 38.11080332 84.49648169 38.12876129 79.38792229 C38.14530194 74.59175165 38.14736856 69.79578473 38.13862228 64.99959564 C38.13785571 63.24853784 38.14214407 61.49746875 38.15208054 59.74643898 C38.49160135 41.77556544 38.49160135 41.77556544 30.78100586 26.12939453 C22.50726601 18.02713116 9.95276837 14.11148143 -1.21899414 12.12939453 C-2.73493164 11.82001953 -2.73493164 11.82001953 -4.28149414 11.50439453 C-4.92086914 11.38064453 -5.56024414 11.25689453 -6.21899414 11.12939453 C-6.21899414 10.46939453 -6.21899414 9.80939453 -6.21899414 9.12939453 C-7.53899414 9.78939453 -8.85899414 10.44939453 -10.21899414 11.12939453 C-10.54899414 10.46939453 -10.87899414 9.80939453 -11.21899414 9.12939453 C-13.19788375 8.40245549 -15.19853972 7.73123202 -17.21899414 7.12939453 C-17.21899414 5.14939453 -17.21899414 3.16939453 -17.21899414 1.12939453 C-11.44371003 0.13651589 -5.85279501 -0.01264021 0 0 Z M101.78100586 27.12939453 C90.48088439 42.84525578 89.47965718 61.45121619 89.49389648 80.15991211 C89.48784758 81.58330161 89.48091727 83.00668759 89.47319031 84.43006897 C89.4584624 87.46361628 89.44959265 90.49709965 89.44548035 93.5306797 C89.4386516 98.36814752 89.4167588 103.2054826 89.39294434 108.04289246 C89.34429186 118.34252819 89.3118968 128.64219262 89.28100586 138.94189453 C89.24766863 150.00533345 89.21094456 161.06871944 89.15687513 172.1320793 C89.13775765 176.13422688 89.12227214 180.13630745 89.11653137 184.13849831 C89.09179416 200.74348285 88.81436644 217.29322026 87.87280273 233.87426758 C87.83330096 234.58460258 87.79379919 235.29493758 87.7531004 236.02679789 C86.08309863 265.3846528 81.42579732 294.30277818 71.78100586 322.12939453 C71.38139648 323.30888672 70.98178711 324.48837891 70.57006836 325.70361328 C67.55936282 334.07903239 63.36621463 341.5404758 58.78100586 349.12939453 C59.77100586 349.12939453 60.76100586 349.12939453 61.78100586 349.12939453 C85.26961837 324.0465323 93.68601623 283.69729491 97.46850586 250.75439453 C97.58790527 249.72910645 97.70730469 248.70381836 97.83032227 247.64746094 C99.67510535 230.33426515 99.95510814 212.90085601 99.90600586 195.50439453 C99.90511963 194.56893799 99.9042334 193.63348145 99.90332031 192.66967773 C99.87579491 166.79367864 99.49135657 140.91811277 99.13696289 115.04492188 C99.03113677 107.31083419 98.9412034 99.57670033 98.86534309 91.84226036 C98.81265834 86.61007547 98.73813117 81.37868747 98.65032196 76.14698029 C98.59616947 72.65232403 98.5600838 69.15762697 98.52809143 65.66270447 C98.50965104 64.03439937 98.4841725 62.40615372 98.45054626 60.77809143 C98.2136688 49.03137277 99.80506836 38.49355376 102.78100586 27.12939453 C102.45100586 27.12939453 102.12100586 27.12939453 101.78100586 27.12939453 Z M-178.21899414 337.12939453 C-177.82571525 347.47262937 -175.42167138 355.73753709 -169.21899414 364.12939453 C-168.75364258 364.77779297 -168.28829102 365.42619141 -167.80883789 366.09423828 C-164.87753719 370.12009116 -161.83666774 373.68819282 -158.21899414 377.12939453 C-157.64922852 377.74298828 -157.07946289 378.35658203 -156.49243164 378.98876953 C-155.88657227 379.63330078 -155.28071289 380.27783203 -154.65649414 380.94189453 C-153.81924805 381.84875 -153.81924805 381.84875 -152.96508789 382.77392578 C-151.06078914 384.53819873 -151.06078914 384.53819873 -147.21899414 384.12939453 C-146.87868164 385.08845703 -146.87868164 385.08845703 -146.53149414 386.06689453 C-145.36648518 388.40133114 -145.36648518 388.40133114 -142.59399414 388.87939453 C-141.81024414 388.96189453 -141.02649414 389.04439453 -140.21899414 389.12939453 C-139.88899414 390.11939453 -139.55899414 391.10939453 -139.21899414 392.12939453 C-136.7397676 393.60071643 -136.7397676 393.60071643 -133.78149414 394.81689453 C-132.7927832 395.25388672 -131.80407227 395.69087891 -130.78540039 396.14111328 C-128.36628053 397.24918112 -128.36628053 397.24918112 -126.21899414 397.12939453 C-126.21899414 396.13939453 -126.21899414 395.14939453 -126.21899414 394.12939453 C-127.06719727 393.67951172 -127.91540039 393.22962891 -128.78930664 392.76611328 C-135.48912681 389.12568173 -141.77225114 385.20977568 -147.78149414 380.50439453 C-148.63735107 379.84056763 -148.63735107 379.84056763 -149.51049805 379.16333008 C-153.272604 376.14663103 -156.21210341 372.89719129 -159.21899414 369.12939453 C-159.96149414 368.38689453 -160.70399414 367.64439453 -161.46899414 366.87939453 C-163.21899414 365.12939453 -163.21899414 365.12939453 -164.21899414 363.12939453 C-164.87899414 363.12939453 -165.53899414 363.12939453 -166.21899414 363.12939453 C-166.47680664 362.43458984 -166.73461914 361.73978516 -167.00024414 361.02392578 C-168.35616753 357.80360773 -169.99981584 354.8582375 -171.71899414 351.81689453 C-174.40697673 346.89917171 -176.24750597 342.63449416 -177.21899414 337.12939453 C-177.54899414 337.12939453 -177.87899414 337.12939453 -178.21899414 337.12939453 Z M-125.21899414 395.12939453 C-125.04258805 397.09426208 -125.04258805 397.09426208 -124.21899414 399.12939453 C-122.3687467 400.23495136 -122.3687467 400.23495136 -120.02758789 400.83251953 C-119.16456055 401.09033203 -118.3015332 401.34814453 -117.41235352 401.61376953 C-116.50291992 401.86642578 -115.59348633 402.11908203 -114.65649414 402.37939453 C-113.77413086 402.64751953 -112.89176758 402.91564453 -111.98266602 403.19189453 C-106.54850872 404.76631409 -101.87044022 405.41955046 -96.21899414 405.12939453 C-96.21899414 404.79939453 -96.21899414 404.46939453 -96.21899414 404.12939453 C-96.96922852 403.94763672 -97.71946289 403.76587891 -98.49243164 403.57861328 C-107.65331586 401.32877396 -116.61934343 399.05532203 -125.21899414 395.12939453 Z M-96.21899414 405.12939453 C-96.21899414 405.45939453 -96.21899414 405.78939453 -96.21899414 406.12939453 C-94.56899414 406.12939453 -92.91899414 406.12939453 -91.21899414 406.12939453 C-91.21899414 405.79939453 -91.21899414 405.46939453 -91.21899414 405.12939453 C-92.86899414 405.12939453 -94.51899414 405.12939453 -96.21899414 405.12939453 Z M-91.21899414 406.12939453 C-91.21899414 406.45939453 -91.21899414 406.78939453 -91.21899414 407.12939453 C-89.23899414 407.12939453 -87.25899414 407.12939453 -85.21899414 407.12939453 C-85.21899414 406.79939453 -85.21899414 406.46939453 -85.21899414 406.12939453 C-87.19899414 406.12939453 -89.17899414 406.12939453 -91.21899414 406.12939453 Z " fill="#024385" transform="translate(589.218994140625,329.87060546875)"/>
<path d="M0 0 C3.82041931 1.40341934 4.37330235 3.11500481 6.04223633 6.68457031 C7.93966225 11.22313684 9.43207641 15.88214941 10.9375 20.5625 C11.73540885 22.99791087 12.53499618 25.43277224 13.3359375 27.8671875 C13.55026428 28.52008255 13.76459106 29.1729776 13.9854126 29.84565735 C16.77242922 38.31736258 19.67252399 46.75050264 22.5625 55.1875 C23.77256315 58.72381208 24.98203771 62.26032532 26.19140625 65.796875 C26.50281052 66.70734589 26.81421478 67.61781677 27.13505554 68.55587769 C30.57603275 78.62016537 33.9987437 88.69065116 37.42071533 98.76141357 C38.50333751 101.94732152 39.58632169 105.13310617 40.66943359 108.31884766 C41.02680603 109.36998749 41.38417847 110.42112732 41.75238037 111.50411987 C42.10866516 112.55205719 42.46494995 113.59999451 42.83203125 114.6796875 C44.90114567 120.76563911 46.96992031 126.85170484 49.03662109 132.93847656 C55.72950255 152.64860222 62.45579164 172.34617861 69.3125 192 C69.61062592 192.85471893 69.90875183 193.70943787 70.21591187 194.59005737 C73.97083642 205.34818319 77.75642404 216.09524913 81.56100845 226.8359108 C83.10735474 231.20301405 84.6507653 235.57115664 86.19494629 239.93902588 C87.48278262 243.5763715 88.77596767 247.21178642 90.06933594 250.84716797 C90.857662 253.07511036 91.6457594 255.30313368 92.43359375 257.53125 C92.80155563 258.56037506 93.16951752 259.58950012 93.54862976 260.64981079 C93.88119278 261.59359589 94.2137558 262.53738098 94.55639648 263.50976562 C94.84868637 264.33271118 95.14097626 265.15565674 95.44212341 266.00354004 C96.0625 268.125 96.0625 268.125 96.0625 271.125 C86.92468378 268.70471987 77.89211241 265.975375 68.85263062 263.21374512 C61.9699839 261.11656728 55.09091133 259.08356895 48.09765625 257.37890625 C47.0415918 257.12085205 45.98552734 256.86279785 44.89746094 256.59692383 C42.92967422 256.12691209 40.95769843 255.67400167 38.98144531 255.2409668 C32.5261195 253.7020866 32.5261195 253.7020866 30.01953125 250.58203125 C29.70371094 249.77121094 29.38789062 248.96039063 29.0625 248.125 C28.69125 247.444375 28.32 246.76375 27.9375 246.0625 C27.0625 244.125 27.0625 244.125 26.59594727 242.25415039 C26.06770218 240.1457635 25.39942403 238.16131988 24.65234375 236.12109375 C24.38486328 235.38052734 24.11738281 234.63996094 23.84179688 233.87695312 C23.27888725 232.32927818 22.71376865 230.78240495 22.14648438 229.23632812 C21.88029297 228.49705078 21.61410156 227.75777344 21.33984375 226.99609375 C21.09484131 226.32505615 20.84983887 225.65401855 20.59741211 224.96264648 C20.0625 223.125 20.0625 223.125 20.0625 220.125 C19.4025 219.795 18.7425 219.465 18.0625 219.125 C17.32327271 217.16091919 17.32327271 217.16091919 16.63720703 214.63330078 C15.23198804 209.67430572 13.61036974 204.84110146 11.8671875 199.9921875 C11.40989258 198.71007133 11.40989258 198.71007133 10.94335938 197.40205383 C9.94366897 194.60055528 8.94058132 191.80028601 7.9375 189 C6.86835857 186.00693313 5.80011008 183.0135486 4.73196411 180.02012634 C3.98847975 177.93658485 3.2447217 175.853141 2.5007019 173.76979065 C-0.20091188 166.20166952 -2.8860184 158.62782403 -5.5625 151.05078125 C-5.94066864 149.98061768 -6.31883728 148.9104541 -6.70846558 147.80786133 C-8.18391718 143.63207736 -9.6592319 139.45624761 -11.13189697 135.27947998 C-12.15166113 132.38765506 -13.17297014 129.49638315 -14.1953125 126.60546875 C-14.67413376 125.25026123 -14.67413376 125.25026123 -15.16262817 123.86767578 C-17.41423052 117.52384606 -19.74848872 111.21450169 -22.20535278 104.94706726 C-23.2766747 102.1643669 -23.9375 100.14000035 -23.9375 97.125 C-24.5975 97.125 -25.2575 97.125 -25.9375 97.125 C-26.10733902 97.71662933 -26.27717804 98.30825867 -26.4521637 98.91781616 C-28.37771717 105.49407047 -30.59983378 111.92181295 -32.96484375 118.3515625 C-33.34992096 119.40515457 -33.73499817 120.45874664 -34.13174438 121.54426575 C-35.37656539 124.94725858 -36.62569709 128.3486503 -37.875 131.75 C-38.73899313 134.10940431 -39.60284316 136.46886102 -40.46655273 138.82836914 C-45.31577243 152.06143226 -50.22557648 165.26972057 -55.21466064 178.45059204 C-59.1721144 188.91989341 -62.8706187 199.45961554 -66.48242188 210.05175781 C-68.909925 217.16884622 -71.39492157 224.25836028 -74 231.3125 C-74.28721924 232.09085205 -74.57443848 232.8692041 -74.87036133 233.67114258 C-76.79239715 238.83479429 -76.79239715 238.83479429 -77.9375 241.125 C-76.91398438 241.15078125 -75.89046875 241.1765625 -74.8359375 241.203125 C-52.57925358 241.96724815 -30.62440325 245.50608226 -8.87182617 250.10620117 C-3.81564246 251.17408554 1.14257309 252.20495241 6.29296875 252.67578125 C10.0625 253.125 10.0625 253.125 12.0625 255.125 C14.36752351 255.87244724 16.64287301 256.52542146 18.984375 257.13671875 C20.53039036 257.55699661 22.07610846 257.97836896 23.62158203 258.40063477 C24.46190979 258.6285672 25.30223755 258.85649963 26.16802979 259.09133911 C48.0770396 265.06604093 69.63005058 272.07075264 91.1875 279.1875 C92.76915933 279.70895082 94.35082434 280.23038442 95.93249512 280.75180054 C100.43811867 282.2380188 104.94209695 283.72915943 109.4453125 285.22265625 C110.13394756 285.45073345 110.82258263 285.67881065 111.53208542 285.91379929 C118.42244368 288.19823485 125.29056367 290.50611084 132.0625 293.125 C132.83548951 298.58139655 133.20061416 303.83768522 133.16015625 309.34375 C133.15803383 310.45876892 133.15803383 310.45876892 133.15586853 311.59631348 C133.15033109 313.93925229 133.13779091 316.28209073 133.125 318.625 C133.11997689 320.22656111 133.11541542 321.82812373 133.11132812 323.4296875 C133.10038227 327.32816288 133.08316196 331.2265645 133.0625 335.125 C129.15710221 334.48674642 125.85928815 333.30408095 122.2421875 331.7109375 C121.08541504 331.20498047 119.92864258 330.69902344 118.73681641 330.17773438 C118.12010071 329.90533936 117.50338501 329.63294434 116.86798096 329.35229492 C114.20617148 328.17712316 111.53915447 327.01398266 108.87252808 325.84979248 C106.72897771 324.91368327 104.58617689 323.97587127 102.44335938 323.03808594 C1.64068609 277.17720356 1.64068609 277.17720356 -106.5 259.9375 C-107.62535156 259.93758057 -108.75070312 259.93766113 -109.91015625 259.93774414 C-119.03761921 259.99932859 -127.9732227 260.70493941 -137.01806641 261.88134766 C-139.71539419 262.22374566 -142.41868744 262.48955988 -145.125 262.75 C-146.383125 262.87375 -147.64125 262.9975 -148.9375 263.125 C-149.2675 264.115 -149.5975 265.105 -149.9375 266.125 C-149.9375 265.465 -149.9375 264.805 -149.9375 264.125 C-172.12886839 271.76895897 -192.4223999 280.40789547 -204.1875 302.0625 C-208.39148922 311.06604358 -209.64627305 321.52941479 -206.5625 331.0625 C-204.79200345 336.53049964 -204.79200345 336.53049964 -200.8125 340.1875 C-199.389375 340.6515625 -199.389375 340.6515625 -197.9375 341.125 C-197.01710938 341.49625 -197.01710938 341.49625 -196.078125 341.875 C-191.67180354 343.6511916 -187.66241667 344.63282118 -182.9375 345.125 C-183.2265625 346.9921875 -183.2265625 346.9921875 -183.9375 349.125 C-192.31429061 354.39927557 -202.76010526 356.41325034 -212.52734375 354.66015625 C-221.80216351 352.51002657 -228.51234473 347.94360612 -233.9375 340.125 C-237.46407008 329.87938588 -237.38387245 318.08169831 -232.9375 308.125 C-226.56013512 295.17540631 -217.62045718 284.55942972 -205.9375 276.125 C-204.89142578 275.36896484 -204.89142578 275.36896484 -203.82421875 274.59765625 C-202.19812304 273.43615931 -200.56817387 272.28006066 -198.9375 271.125 C-198.2775 270.465 -197.6175 269.805 -196.9375 269.125 C-194.8338645 268.00074301 -192.70434116 266.92464401 -190.5625 265.875 C-189.42039062 265.31296875 -188.27828125 264.7509375 -187.1015625 264.171875 C-186.13512817 263.70237427 -186.13512817 263.70237427 -185.14916992 263.22338867 C-183.52625614 262.41739584 -181.91607453 261.58563185 -180.3137207 260.73950195 C-172.40256062 256.61773779 -164.31112228 253.61743336 -155.875 250.8125 C-154.55767487 250.36732824 -153.24061595 249.92136794 -151.92382812 249.47460938 C-148.5977291 248.34983327 -145.26885173 247.23410095 -141.9375 246.125 C-140.9475 245.795 -139.9575 245.465 -138.9375 245.125 C-136.86312194 244.88695662 -134.78816362 244.65316231 -132.7109375 244.44140625 C-129.54344704 244.08004466 -126.40194298 243.60310371 -123.25 243.125 C-117.09933939 242.20908641 -111.01319263 241.78450903 -104.80078125 241.56640625 C-101.50846129 241.05885897 -100.96762734 240.65688404 -98.9375 238.125 C-97.74117823 235.55830753 -97.74117823 235.55830753 -96.73046875 232.5703125 C-96.10918091 230.84143799 -96.10918091 230.84143799 -95.4753418 229.07763672 C-95.25647308 228.45693298 -95.03760437 227.83622925 -94.81210327 227.19671631 C-93.61194134 223.79639076 -92.38151739 220.40696626 -91.15625 217.015625 C-90.89684128 216.29523041 -90.63743256 215.57483582 -90.37016296 214.83261108 C-87.37281615 206.52324912 -84.25553013 198.25992506 -81.125 190 C-80.83458832 189.23258484 -80.54417664 188.46516968 -80.2449646 187.67449951 C-76.91883069 178.88946806 -73.55752319 170.1188566 -70.14453125 161.3671875 C-69.83251266 160.5669516 -69.52049408 159.7667157 -69.19902039 158.94223022 C-67.71486619 155.13898077 -66.22649084 151.33745928 -64.73120117 147.53857422 C-64.18485962 146.14571343 -63.63903347 144.75265035 -63.09375 143.359375 C-62.83141068 142.68999908 -62.56907135 142.02062317 -62.29878235 141.33096313 C-60.88546277 137.68889987 -59.54293665 134.03136099 -58.26953125 130.33789062 C-57.99862671 129.55254944 -57.72772217 128.76720825 -57.4486084 127.95806885 C-56.93049026 126.442707 -56.41920795 124.92498618 -55.91564941 123.40472412 C-54.15466526 118.23358263 -54.15466526 118.23358263 -51.9375 117.125 C-51.191487 115.19565145 -51.191487 115.19565145 -50.61010742 112.83081055 C-48.86029808 106.66252944 -46.55308322 100.78194459 -44.17578125 94.83203125 C-43.71240356 93.66317886 -43.24902588 92.49432648 -42.77160645 91.29005432 C-41.5258547 88.15133212 -40.27624104 85.01421151 -39.02423477 81.87798309 C-38.24721668 79.93052409 -37.4716764 77.9824831 -36.69662476 76.03424072 C-30.11648151 59.49504887 -23.49093388 42.97441562 -16.75 26.5 C-16.42488434 25.7032486 -16.09976868 24.90649719 -15.76480103 24.08560181 C-6.02820343 0.25651929 -6.02820343 0.25651929 0 0 Z " fill="#D2BCA0" transform="translate(485.9375,226.875)"/>
<path d="M0 0 C1.85766602 0.16186523 1.85766602 0.16186523 4.25390625 0.55859375 C5.10791016 0.69716797 5.96191406 0.83574219 6.84179688 0.97851562 C7.73962891 1.12998047 8.63746094 1.28144531 9.5625 1.4375 C10.91504883 1.65889648 10.91504883 1.65889648 12.29492188 1.88476562 C14.53082392 2.25150088 16.76573071 2.62346613 19 3 C20.02904405 6.16022396 19.95965801 7.99118209 18.92578125 11.1328125 C18.67207764 11.93041992 18.41837402 12.72802734 18.15698242 13.54980469 C17.87830322 14.39961914 17.59962402 15.24943359 17.3125 16.125 C15.16745231 22.95168452 13.22374508 29.75952964 11.6875 36.75 C11.52870361 37.4630127 11.36990723 38.17602539 11.20629883 38.91064453 C8.6193728 50.97728357 6.57000399 64.49698213 12 76 C12.495 77.051875 12.99 78.10375 13.5 79.1875 C17.29320741 83.45485833 21.89099633 85.57305089 27 88 C28.10794922 88.556875 28.10794922 88.556875 29.23828125 89.125 C37.93005989 93.07721196 47.66566095 94.30976452 57 96 C57 97.98 57 99.96 57 102 C37.51155598 102.1538949 18.02307588 102.30192838 -1.46546555 102.4429636 C-10.51411001 102.50858409 -19.56273248 102.57613031 -28.61132812 102.64819336 C-36.4970941 102.71099076 -44.38287743 102.77019194 -52.26870275 102.82505554 C-56.44505825 102.85423756 -60.6213827 102.88523334 -64.79769135 102.92053413 C-68.72755598 102.95369505 -72.65742583 102.98205188 -76.58735275 103.00670624 C-78.03053744 103.0166102 -79.47371126 103.02827731 -80.9168663 103.04183006 C-82.88600662 103.06005978 -84.85520752 103.07135511 -86.82440186 103.08229065 C-88.47809847 103.09473485 -88.47809847 103.09473485 -90.16520309 103.10743046 C-92.62942138 103.01404384 -94.65397186 102.71928748 -97 102 C-97 100.35 -97 98.7 -97 97 C-96.32122803 96.87995605 -95.64245605 96.75991211 -94.94311523 96.63623047 C-68.39501078 91.85914456 -45.77073692 84.54901428 -29.34375 61.5859375 C-19.82675202 47.31856084 -13.27224278 31.97110142 -7.16894531 16.0078125 C-1.55018587 1.55018587 -1.55018587 1.55018587 0 0 Z " fill="#D2BCA0" transform="translate(378,493)"/>
<path d="M0 0 C10.42861056 2.84954824 20.37180312 6.13885816 30.27194214 10.50363159 C33.79275924 12.0546119 37.32896597 13.56993808 40.86328125 15.08984375 C41.969244 15.56675407 41.969244 15.56675407 43.09754944 16.05329895 C51.82645928 19.80642841 60.62889721 23.37642612 69.4375 26.9375 C70.18866089 27.24202087 70.93982178 27.54654175 71.71374512 27.86029053 C78.48051819 30.60300944 85.25155942 33.33117705 92.06298828 35.96142578 C92.8940358 36.2823671 93.72508331 36.60330841 94.58131409 36.93397522 C96.18848096 37.55286663 97.79663333 38.16920631 99.40586853 38.78269958 C104.89160365 40.89160365 104.89160365 40.89160365 106 42 C105.67 49.92 105.34 57.84 105 66 C75.63 65.67 46.26 65.34 16 65 C16 63.02 16 61.04 16 59 C17.00160156 58.78085937 18.00320313 58.56171875 19.03515625 58.3359375 C29.84159274 56.01930708 29.84159274 56.01930708 38 49 C40.3841053 43.63576308 40.10288702 39.60634235 39 34 C38.14209817 31.78228936 38.14209817 31.78228936 37 30 C36.731875 29.38125 36.46375 28.7625 36.1875 28.125 C32.27109191 21.11669078 26.58964634 17.31509512 20 13 C19.071875 12.37480469 18.14375 11.74960937 17.1875 11.10546875 C11.92332308 7.63257425 7.00953573 4.92758693 1 3 C0.67 3.66 0.34 4.32 0 5 C0 3.35 0 1.7 0 0 Z " fill="#D5BEA0" transform="translate(512,530)"/>
<path d="M0 0 C10.42861056 2.84954824 20.37180312 6.13885816 30.27194214 10.50363159 C33.79275924 12.0546119 37.32896597 13.56993808 40.86328125 15.08984375 C41.969244 15.56675407 41.969244 15.56675407 43.09754944 16.05329895 C51.82645928 19.80642841 60.62889721 23.37642612 69.4375 26.9375 C70.18866089 27.24202087 70.93982178 27.54654175 71.71374512 27.86029053 C78.48051819 30.60300944 85.25155942 33.33117705 92.06298828 35.96142578 C92.8940358 36.2823671 93.72508331 36.60330841 94.58131409 36.93397522 C96.18848096 37.55286663 97.79663333 38.16920631 99.40586853 38.78269958 C104.89160365 40.89160365 104.89160365 40.89160365 106 42 C106.01665074 43.56423432 105.96308892 45.12935006 105.87890625 46.69140625 C105.83056641 47.63564453 105.78222656 48.57988281 105.73242188 49.55273438 C105.67634766 50.54595703 105.62027344 51.53917969 105.5625 52.5625 C105.51029297 53.55958984 105.45808594 54.55667969 105.40429688 55.58398438 C105.2741763 58.05627522 105.13919819 60.5282063 105 63 C80.76440243 55.51770013 58.51074431 41.99322618 39.22265625 25.71484375 C34.73320535 21.81766898 34.73320535 21.81766898 29.5390625 19.015625 C26.7820361 17.91281444 24.75547717 16.51744459 22.375 14.75 C15.69717463 9.96871696 8.68084733 5.93720015 1 3 C0.67 3.66 0.34 4.32 0 5 C0 3.35 0 1.7 0 0 Z " fill="#07407F" transform="translate(512,530)"/>
<path d="M0 0 C5.76244383 0.57041064 10.94016959 1.70683538 16.4375 3.5 C17.15615234 3.72558594 17.87480469 3.95117188 18.61523438 4.18359375 C23.85641687 5.85641687 23.85641687 5.85641687 25 7 C25.85345744 12.44355303 26.13807902 17.71746753 26.09765625 23.21875 C26.0962413 23.96209595 26.09482635 24.70544189 26.09336853 25.47131348 C26.08783109 27.81425229 26.07529091 30.15709073 26.0625 32.5 C26.05747689 34.10156111 26.05291542 35.70312373 26.04882812 37.3046875 C26.03788227 41.20316288 26.02066196 45.1015645 26 49 C22.09460221 48.36174642 18.79678815 47.17908095 15.1796875 45.5859375 C14.02291504 45.07998047 12.86614258 44.57402344 11.67431641 44.05273438 C11.05760071 43.78033936 10.44088501 43.50794434 9.80548096 43.22729492 C7.14367148 42.05212316 4.47665447 40.88898266 1.81002808 39.72479248 C-0.33352229 38.78868327 -2.47632311 37.85087127 -4.61914062 36.91308594 C-11.85930924 33.74808411 -19.1144767 30.61798633 -26.375 27.5 C-27.09721741 27.18977905 -27.81943481 26.87955811 -28.5635376 26.55993652 C-39.66217395 21.79891681 -50.80892119 17.1643391 -62 12.625 C-62.69325378 12.34374268 -63.38650757 12.06248535 -64.10076904 11.77270508 C-71.49145938 8.72871126 -71.49145938 8.72871126 -79 6 C-79 5.34 -79 4.68 -79 4 C-74.21791764 4.50337709 -70.23838885 6.00143777 -65.84375 7.828125 C-62.72921977 9.11158526 -59.5879352 10.30754555 -56.4375 11.5 C-52.04670868 13.18364842 -47.72909837 14.95231848 -43.44921875 16.8984375 C-40.27475961 18.32618467 -37.07566956 19.6948761 -33.875 21.0625 C-32.16957031 21.79146484 -32.16957031 21.79146484 -30.4296875 22.53515625 C-28.73199219 23.26025391 -28.73199219 23.26025391 -27 24 C-25.8140625 24.50917969 -24.628125 25.01835938 -23.40625 25.54296875 C-20.48467128 26.79268075 -17.55843331 28.02845299 -14.625 29.25 C-13.59375 29.68054688 -12.5625 30.11109375 -11.5 30.5546875 C-8.98364472 31.59380743 -6.46418388 32.61953168 -3.9375 33.6328125 C-3.22384277 33.92124023 -2.51018555 34.20966797 -1.77490234 34.50683594 C-0.4073327 35.05908187 0.9619609 35.60709174 2.33349609 36.14941406 C9.47607505 39.04406567 16.02617175 42.51308588 23 46 C22.67 33.79 22.34 21.58 22 9 C15.51023961 6.77995867 15.51023961 6.77995867 9.01611328 4.57275391 C8.20899902 4.29351074 7.40188477 4.01426758 6.5703125 3.7265625 C5.74289551 3.44377441 4.91547852 3.16098633 4.06298828 2.86962891 C2 2 2 2 0 0 Z " fill="#D1B793" transform="translate(593,513)"/>
<path d="M0 0 C0.33 0 0.66 0 1 0 C1.86560033 10.08057296 2.14809865 20.08227778 2.1328125 30.1953125 C2.1338327 31.76268537 2.13517475 33.33005807 2.1368103 34.89743042 C2.13950043 39.10149526 2.13505082 43.30552287 2.12857056 47.50958252 C2.1249855 50.13562124 2.12337714 52.76165444 2.12231445 55.38769531 C2.10318852 93.59621257 1.61797174 131.79702665 1 170 C0.67 170 0.34 170 0 170 C-0.15579145 153.29803522 -0.30372627 136.59602059 -0.4429636 119.89391041 C-0.50782444 112.13423419 -0.57504196 104.37459308 -0.64819336 96.61499023 C-1.27585704 29.77729282 -1.27585704 29.77729282 0 0 Z " fill="#0E2C5F" transform="translate(703,374)"/>
<path d="M0 0 C0 0.33 0 0.66 0 1 C-53.37224666 2.17322369 -106.63035565 2.07834975 -160 1 C-160 0.67 -160 0.34 -160 0 C-106.63117757 -1.1086755 -53.36996002 -1.20917607 0 0 Z " fill="#082866" transform="translate(744,331)"/>
<path d="M0 0 C0.98484375 0.00902344 1.9696875 0.01804687 2.984375 0.02734375 C4.10585938 0.04474609 4.10585938 0.04474609 5.25 0.0625 C2.02208445 2.2144437 0.96599191 2.26336443 -2.75 2.0625 C-2.75 2.7225 -2.75 3.3825 -2.75 4.0625 C45.1 4.0625 92.95 4.0625 142.25 4.0625 C141.92 3.0725 141.59 2.0825 141.25 1.0625 C141.91 1.0625 142.57 1.0625 143.25 1.0625 C143.25 2.3825 143.25 3.7025 143.25 5.0625 C142.54892467 5.06673194 141.84784933 5.07096388 141.12552929 5.07532406 C124.03066198 5.17883527 106.93583513 5.28750267 89.8410368 5.40183926 C81.57396993 5.45700952 73.30689875 5.51046397 65.03979492 5.55981445 C57.83034509 5.60285569 50.62092495 5.64918221 43.41152126 5.69937855 C39.5977133 5.72581991 35.78391062 5.75066718 31.97006798 5.77157402 C28.3725378 5.79134714 24.77506329 5.81554823 21.17758369 5.84299088 C19.24383576 5.85663386 17.31005732 5.86572079 15.37628174 5.87461853 C9.04550199 5.92730253 2.84567314 6.18897033 -3.44238567 6.94862461 C-5.77900777 7.06393147 -7.5273113 6.75297025 -9.75 6.0625 C-9.75 4.4125 -9.75 2.7625 -9.75 1.0625 C-6.43929162 0.06140485 -3.44915231 -0.04106134 0 0 Z " fill="#D7B78B" transform="translate(290.75,588.9375)"/>
<path d="M0 0 C0.33 0 0.66 0 1 0 C1.3381892 5.89864876 0.17982677 10.55175645 -1.6875 16.125 C-2.09959717 17.38123169 -2.09959717 17.38123169 -2.52001953 18.6628418 C-3.33234167 21.11368401 -4.16275933 23.55757401 -5 26 C-5.40605469 27.20011719 -5.81210937 28.40023437 -6.23046875 29.63671875 C-9.23992247 37.98718247 -13.42693041 45.43117266 -18 53 C-14.28943522 49.45076412 -11.69931429 46.11421208 -9.2109375 41.671875 C-8 40 -8 40 -5 39 C-8.11744705 47.98946373 -15.18259065 56.63511123 -23 62 C-25.19921875 61.63671875 -25.19921875 61.63671875 -27 61 C-26.175 59.989375 -25.35 58.97875 -24.5 57.9375 C-11.94329269 41.01836856 -5.47798073 20.09470816 0 0 Z " fill="#14396D" transform="translate(667,626)"/>
<path d="M0 0 C2.1993292 3.52063163 2.09544032 6.09976974 1.875 10.1875 C1.72033708 18.85772141 3.76106091 26.67366426 6 35 C6.16628906 35.80179688 6.33257812 36.60359375 6.50390625 37.4296875 C6.66761719 37.94789063 6.83132813 38.46609375 7 39 C7.66 39.33 8.32 39.66 9 40 C9.37125 40.969375 9.7425 41.93875 10.125 42.9375 C14.27119229 53.07494014 24.06810453 62.7560123 33 68.875 C36 71 36 71 37 74 C21.85057602 67.13922638 9.34023788 51.04887698 2.99609375 36.01171875 C-0.8019443 24.52823901 -2.57802567 11.92336874 0 0 Z " fill="#1D3C6D" transform="translate(387,649)"/>
<path d="M0 0 C0.33 -0.66 0.66 -1.32 1 -2 C1.66 -1.34 2.32 -0.68 3 0 C3.515625 0.37125 4.03125 0.7425 4.5625 1.125 C6.86882496 4.13324995 6.69398747 7.26664708 7 11 C5.68 11.33 4.36 11.66 3 12 C3.33 11.34 3.66 10.68 4 10 C1.2277241 5.20183017 -0.84348156 3.0291855 -6 1 C-8.80438304 0.56933943 -11.5413875 0.52240467 -14.375 0.5625 C-15.50881104 0.57603516 -15.50881104 0.57603516 -16.66552734 0.58984375 C-24.61521901 0.83757273 -29.14618657 2.83294662 -34.6875 8.5625 C-41.44468481 16.92780201 -43.79573273 25.35953202 -44 36 C-44.33 36 -44.66 36 -45 36 C-45.62368219 23.97679342 -44.62447332 15.99390506 -36.8125 6.625 C-26.71667278 -3.76488044 -13.37718928 -4.34324327 0 0 Z " fill="#1E4071" transform="translate(482,636)"/>
<path d="M0 0 C5.76244383 0.57041064 10.94016959 1.70683538 16.4375 3.5 C17.15615234 3.72558594 17.87480469 3.95117188 18.61523438 4.18359375 C23.85641687 5.85641687 23.85641687 5.85641687 25 7 C25.85345744 12.44355303 26.13807902 17.71746753 26.09765625 23.21875 C26.0962413 23.96209595 26.09482635 24.70544189 26.09336853 25.47131348 C26.08783109 27.81425229 26.07529091 30.15709073 26.0625 32.5 C26.05747689 34.10156111 26.05291542 35.70312373 26.04882812 37.3046875 C26.03788227 41.20316288 26.02066196 45.1015645 26 49 C25.01 49 24.02 49 23 49 C22.67 35.8 22.34 22.6 22 9 C15.51023961 6.77995867 15.51023961 6.77995867 9.01611328 4.57275391 C8.20899902 4.29351074 7.40188477 4.01426758 6.5703125 3.7265625 C5.74289551 3.44377441 4.91547852 3.16098633 4.06298828 2.86962891 C2 2 2 2 0 0 Z " fill="#C6B194" transform="translate(593,513)"/>
<path d="M0 0 C0.99 0.33 1.98 0.66 3 1 C4.83081979 6.49245937 5.20568145 11.24091942 5 17 C4.34 17 3.68 17 3 17 C2.9175 17.556875 2.835 18.11375 2.75 18.6875 C1.26728186 23.25921428 -1.43335314 25.90316677 -5.625 28.0625 C-10.3652795 30.16176664 -15.18648006 32.07459202 -20 34 C-2.18 34.33 15.64 34.66 34 35 C34 35.33 34 35.66 34 36 C15.52 36 -2.96 36 -22 36 C-22 34.02 -22 32.04 -22 30 C-20.99839844 29.78085937 -19.99679687 29.56171875 -18.96484375 29.3359375 C-8.15840726 27.01930708 -8.15840726 27.01930708 0 20 C3.03829657 13.16383272 1.55099812 7.09027713 0 0 Z " fill="#D2B793" transform="translate(550,559)"/>
<path d="M0 0 C0.33 0 0.66 0 1 0 C1.495 2.97 1.495 2.97 2 6 C0.9275 6.391875 -0.145 6.78375 -1.25 7.1875 C-2.8336636 7.79080042 -4.41695548 8.39507698 -6 9 C-7.39412109 9.51046875 -7.39412109 9.51046875 -8.81640625 10.03125 C-17.31778511 13.31209504 -26.77396652 17.6184115 -31.625 25.75 C-32.66143026 28.19974426 -33.58100646 30.38129038 -34 33 C-34.33 32.67 -34.66 32.34 -35 32 C-37.60900601 38.64558134 -38.6143354 44.88515313 -39 52 C-39.33 52 -39.66 52 -40 52 C-41.70424765 41.01478922 -39.70282626 33.75646528 -33.7734375 24.4140625 C-25.87233578 13.6588183 -13.04505654 7.02423291 0 5 C0 3.35 0 1.7 0 0 Z " fill="#1E3F70" transform="translate(744,331)"/>
<path d="M0 0 C0.66 0 1.32 0 2 0 C2.20753906 0.85980469 2.41507812 1.71960938 2.62890625 2.60546875 C7.46082394 21.14466758 18.33159764 38.83634003 35 49 C34.34 49.66 33.68 50.32 33 51 C29.66666667 48.33333333 26.33333333 45.66666667 23 43 C22.08992188 42.29359375 21.17984375 41.5871875 20.2421875 40.859375 C17.94391729 38.95349239 17.10579256 37.72195091 16 35 C15.62875 34.2575 15.2575 33.515 14.875 32.75 C14.58625 32.1725 14.2975 31.595 14 31 C13.34 31 12.68 31 12 31 C5.80439258 20.89074855 0.47091899 12.11546128 0 0 Z " fill="#143D74" transform="translate(411,662)"/>
<path d="M0 0 C-35.62608607 20.33956523 -35.62608607 20.33956523 -52.25 20.0625 C-54.10625 20.0315625 -54.10625 20.0315625 -56 20 C-53.53233012 17.53233012 -52.28308412 17.55095514 -48.875 16.9375 C-34.14046259 13.70509035 -19.24765518 8.0210995 -6.390625 0.1171875 C-3.60807265 -1.18315559 -2.82889491 -0.87106078 0 0 Z " fill="#1B3C6F" transform="translate(621,721)"/>
<path d="M0 0 C4.17646884 3.9444428 7.64879182 7.9597816 10 13.25 C10.86132495 15.13289692 10.86132495 15.13289692 12.75 15.875 C15.60870062 17.30435031 17.31584181 19.30211767 19.4375 21.66015625 C21.26801987 23.22982704 22.67853913 23.47218294 25 24 C26.35368596 25.31266518 27.68799596 26.64567325 29 28 C29.99 28.33 30.98 28.66 32 29 C33.4375 30.3125 33.4375 30.3125 35 32 C35.721875 32.721875 36.44375 33.44375 37.1875 34.1875 C37.785625 34.785625 38.38375 35.38375 39 36 C23.50683842 31.43914326 8.82281367 17.23422051 0 4 C0 2.68 0 1.36 0 0 Z " fill="#183E71" transform="translate(417,690)"/>
<path d="M0 0 C0.598125 0.20625 1.19625 0.4125 1.8125 0.625 C0.27142578 1.47771484 0.27142578 1.47771484 -1.30078125 2.34765625 C-14.48676893 9.67515655 -26.31879219 17.28547533 -37.63964844 27.28271484 C-39.76999763 29.13013753 -41.96938759 30.88457097 -44.1875 32.625 C-41.7531017 27.14760381 -38.05683532 23.28199262 -33.375 19.625 C-32.50230469 18.94179688 -31.62960937 18.25859375 -30.73046875 17.5546875 C-27.59529316 15.17561416 -24.39885825 12.89971209 -21.1875 10.625 C-20.5275 9.965 -19.8675 9.305 -19.1875 8.625 C-16.88769855 7.41667805 -14.58763833 6.25481913 -12.25 5.125 C-1.26466656 -0.21679998 -1.26466656 -0.21679998 0 0 Z " fill="#D4B78F" transform="translate(308.1875,487.375)"/>
<path d="M0 0 C18.81 0 37.62 0 57 0 C45.93914099 5.53042951 32.0363488 4.17121895 19.9375 3.6875 C18.98713867 3.65285645 18.03677734 3.61821289 17.05761719 3.58251953 C11.15709261 3.29961767 5.73111114 2.43717731 0 1 C0 0.67 0 0.34 0 0 Z " fill="#13356A" transform="translate(487,744)"/>
<path d="M0 0 C0.64257812 1.81542969 0.64257812 1.81542969 1 4 C-0.76347173 6.28285039 -2.47705834 8.22146441 -4.5 10.25 C-5.62481926 11.412979 -6.74852346 12.57703752 -7.87109375 13.7421875 C-8.41620605 14.30260742 -8.96131836 14.86302734 -9.52294922 15.44042969 C-11.31549372 17.33311965 -12.9370469 19.33819145 -14.5625 21.375 C-18.50450921 25.9287003 -23.51524005 29.5221988 -29 32 C-31.33203125 31.68359375 -31.33203125 31.68359375 -33 31 C-32.39414062 30.5875 -31.78828125 30.175 -31.1640625 29.75 C-18.65211797 21.12638285 -8.92135075 12.28728161 0 0 Z " fill="#1B3D71" transform="translate(598,676)"/>
<path d="M0 0 C0.98226563 0.27263672 0.98226563 0.27263672 1.984375 0.55078125 C2.89703125 0.80214844 3.8096875 1.05351563 4.75 1.3125 C6.07257813 1.67794922 6.07257813 1.67794922 7.421875 2.05078125 C8.60265625 2.36402344 9.7834375 2.67726563 11 3 C11.84143555 3.24194092 12.68287109 3.48388184 13.54980469 3.7331543 C21.60055895 5.93438512 29.43420979 6.71442008 37.75 7.1875 C39.03132812 7.26935547 40.31265625 7.35121094 41.6328125 7.43554688 C44.75473586 7.63357933 47.8769069 7.82154669 51 8 C51 8.33 51 8.66 51 9 C34.65212126 11.99872332 14.9653667 9.48268335 0 2 C0 1.34 0 0.68 0 0 Z " fill="#16376D" transform="translate(475,714)"/>
<path d="M0 0 C0 3.33910669 -0.52569155 4.1657978 -2.3125 6.875 C-2.76882813 7.58527344 -3.22515625 8.29554688 -3.6953125 9.02734375 C-4.67529828 10.50905878 -5.6763146 11.97689887 -6.6875 13.4375 C-11.370445 22.58039263 -11.34197043 35.18245996 -9 45 C-12 43 -12 43 -12.671875 41.3203125 C-14.78572477 26.37237486 -11.59763912 14.34933619 -3 2 C-2.01 1.34 -1.02 0.68 0 0 Z " fill="#D4B58C" transform="translate(263,521)"/>
<path d="M0 0 C0.66 0.33 1.32 0.66 2 1 C-1.60612004 10.13823601 -5.32757291 19.21903398 -9.16455078 28.26269531 C-11.27164517 33.2367863 -13.30901766 38.22818248 -15.2109375 43.28515625 C-16 45 -16 45 -18 47 C-17.40293727 42.60920394 -16.3082506 38.82427555 -14.671875 34.7109375 C-14.20136719 33.52113281 -13.73085938 32.33132813 -13.24609375 31.10546875 C-12.74744996 29.86195746 -12.24875184 28.61846795 -11.75 27.375 C-11.27175781 26.16714844 -10.79351562 24.95929688 -10.30078125 23.71484375 C-1.46187221 1.46187221 -1.46187221 1.46187221 0 0 Z " fill="#D5B78F" transform="translate(468,258)"/>
<path d="M0 0 C0.66 0 1.32 0 2 0 C3.72090988 4.87057162 5.42948078 9.74523387 7.12695312 14.62402344 C7.70564297 16.28176917 8.28763783 17.93836513 8.87304688 19.59375 C9.71583852 21.97879303 10.54650354 24.36777189 11.375 26.7578125 C11.63748535 27.49242706 11.8999707 28.22704163 12.17041016 28.98391724 C13.59449476 33.13481104 14.29403812 36.54654768 14 41 C12.18116846 38.27175269 11.21910173 36.11755102 10.140625 33.05859375 C9.79322266 32.08003418 9.44582031 31.10147461 9.08789062 30.09326172 C8.72888672 29.07248535 8.36988281 28.05170898 8 27 C7.64615234 26.01402832 7.29230469 25.02805664 6.92773438 24.01220703 C5.85840517 21.03245376 4.803034 18.04804639 3.75 15.0625 C3.38648438 14.04865234 3.02296875 13.03480469 2.6484375 11.99023438 C2.30554688 11.01505859 1.96265625 10.03988281 1.609375 9.03515625 C1.29967773 8.1625415 0.98998047 7.28992676 0.67089844 6.39086914 C0 4 0 4 0 0 Z " fill="#D5B890" transform="translate(511,295)"/>
<path d="M0 0 C0.66 0.33 1.32 0.66 2 1 C2.36627896 9.4431996 0.9632589 17.52027614 -0.4375 25.8125 C-0.67054112 27.2310182 -0.90296755 28.64963752 -1.13476562 30.06835938 C-2.96915704 41.19303723 -2.96915704 41.19303723 -4 45 C-4.66 45 -5.32 45 -6 45 C-5.13725964 36.50739959 -3.8047274 28.1095403 -2.4609375 19.68164062 C-1.43268049 13.13225738 -0.5673717 6.60596099 0 0 Z " fill="#193C6F" transform="translate(674,580)"/>
<path d="M0 0 C1.45501945 4.55198957 -0.05336036 7.90304115 -1.640625 12.23046875 C-2.06489777 13.41700798 -2.06489777 13.41700798 -2.4977417 14.6275177 C-3.09779919 16.29617398 -3.70334342 17.96286596 -4.31396484 19.62768555 C-5.24831768 22.18289929 -6.1583414 24.74589052 -7.06640625 27.31054688 C-7.65220103 28.93021078 -8.23939325 30.54937009 -8.828125 32.16796875 C-9.10013733 32.9377153 -9.37214966 33.70746185 -9.65240479 34.50053406 C-10.34730797 36.36866786 -11.16408531 38.19056336 -12 40 C-13.485 40.495 -13.485 40.495 -15 41 C-14.5662812 39.49890232 -14.12777365 37.99918823 -13.6875 36.5 C-13.44386719 35.6646875 -13.20023437 34.829375 -12.94921875 33.96875 C-12.01362399 31.04261 -10.95879695 28.17730874 -9.86743164 25.30615234 C-8.8845456 22.69305312 -7.93661053 20.06864782 -6.9921875 17.44140625 C-6.64542969 16.47912109 -6.29867188 15.51683594 -5.94140625 14.52539062 C-5.22085958 12.52343221 -4.50215632 10.52080949 -3.78515625 8.51757812 C-3.26888672 7.08768555 -3.26888672 7.08768555 -2.7421875 5.62890625 C-2.4313623 4.76338135 -2.12053711 3.89785645 -1.80029297 3.00610352 C-1 1 -1 1 0 0 Z " fill="#D5B78F" transform="translate(457,327)"/>
<path d="M0 0 C0.65355469 0.58007812 0.65355469 0.58007812 1.3203125 1.171875 C9.98886516 8.7521678 15.99250447 11.01749627 27.3125 11.5625 C28.14845703 11.60568359 28.98441406 11.64886719 29.84570312 11.69335938 C31.89696935 11.79885307 33.9484648 11.89987315 36 12 C36 12.66 36 13.32 36 14 C25.1173067 15.31863291 15.71675243 15.66504629 6.5 9.0625 C3.87425643 6.97636898 1.85601219 4.80099401 0 2 C0 1.34 0 0.68 0 0 Z " fill="#D4B78F" transform="translate(254,567)"/>
<path d="M0 0 C0.66 0.33 1.32 0.66 2 1 C-1.85854116 14.50489407 -8.94377245 26.59646664 -17 38 C-17.66 38.99 -18.32 39.98 -19 41 C-19.66 41 -20.32 41 -21 41 C-19.52901117 36.82578039 -17.42872367 33.52176481 -14.9375 29.875 C-8.84074142 20.70851845 -3.48783551 10.46350653 0 0 Z " fill="#18396B" transform="translate(685,639)"/>
<path d="M0 0 C17.85649203 5.0022779 17.85649203 5.0022779 26 9 C26 9.33 26 9.66 26 10 C19.92484665 11.08002726 17.02594806 11.21759766 11.625 8.125 C8.14424558 6.14010698 4.75485071 4.40636226 1 3 C0.67 3.66 0.34 4.32 0 5 C0 3.35 0 1.7 0 0 Z " fill="#314E7D" transform="translate(512,530)"/>
<path d="M0 0 C0.33 0 0.66 0 1 0 C1.03738281 0.97839844 1.07476562 1.95679688 1.11328125 2.96484375 C1.48349314 10.34730435 1.95307721 17.16264695 5 24 C5.31453125 24.71671875 5.6290625 25.4334375 5.953125 26.171875 C7.44690933 28.78042376 9.20798221 29.02604031 12 30 C13.6829392 30.97236487 15.35443434 31.96564444 17 33 C13.60491686 34.13169438 13.19158112 33.97959556 10.125 32.5 C4.57829496 29.53292065 2.03943512 25.52434242 -0.3125 19.8125 C-1.47791418 13.34974863 -1.89772294 6.36116729 0 0 Z " fill="#D5B78F" transform="translate(276,538)"/>
<path d="M0 0 C3.96091657 0.59235329 6.84492823 1.83031353 10.3125 3.8125 C11.27285156 4.35003906 12.23320312 4.88757813 13.22265625 5.44140625 C14.59744141 6.21291016 14.59744141 6.21291016 16 7 C20.92472387 9.66363326 25.55984979 11.63996245 31 13 C30.67 13.66 30.34 14.32 30 15 C27.36 14.67 24.72 14.34 22 14 C22 13.34 22 12.68 22 12 C19.525 11.505 19.525 11.505 17 11 C17 11.99 17 12.98 17 14 C15.68 13.34 14.36 12.68 13 12 C13.66 12 14.32 12 15 12 C15 11.01 15 10.02 15 9 C13.7934375 8.690625 13.7934375 8.690625 12.5625 8.375 C7.91783272 6.5823214 3.95518418 4.01472928 0 1 C0 0.67 0 0.34 0 0 Z " fill="#234B7E" transform="translate(448,715)"/>
<path d="M0 0 C0 0.66 0 1.32 0 2 C-1.56607572 3.03900188 -3.1811513 4.00432291 -4.8125 4.9375 C-14.40461563 10.89080015 -22.3469332 18.5884417 -27 29 C-27.66 29 -28.32 29 -29 29 C-26.59084793 16.5900655 -14.55349142 8.35386206 -4.79296875 1.72265625 C-2 0 -2 0 0 0 Z " fill="#D4B68D" transform="translate(309,500)"/>
<path d="M0 0 C6.59109862 1.06308042 12.79829293 2.78691346 19.125 4.875 C19.8763623 5.11943848 20.62772461 5.36387695 21.40185547 5.61572266 C31.83438593 9.12976607 31.83438593 9.12976607 36 12 C36.495 13.485 36.495 13.485 37 15 C34.17192368 13.87740482 31.3560278 12.73192107 28.546875 11.5625 C20.82106793 8.36753367 13.47137313 5.71365736 5.125 4.625 C2.32212741 3.80062571 1.63417916 2.34387983 0 0 Z " fill="#244173" transform="translate(580,337)"/>
<path d="M0 0 C-3.80383429 2.30232076 -7.93968461 2.87821482 -12.25 3.625 C-14.8075 4.07875 -17.365 4.5325 -20 5 C-20.99 10.61 -21.98 16.22 -23 22 C-25.61844481 18.07233279 -24.83778764 15.30630139 -24.1875 10.875 C-24.09146484 10.13378906 -23.99542969 9.39257812 -23.89648438 8.62890625 C-23.15031415 3.15031415 -23.15031415 3.15031415 -22 2 C-14.68850717 0.64087582 -7.43677001 -0.2974708 0 0 Z " fill="#1A4074" transform="translate(724,567)"/>
<path d="M0 0 C0.33 0 0.66 0 1 0 C2.0259555 11.75522508 2.10204112 23.01413971 0.6875 34.75 C0.55754639 35.85077881 0.42759277 36.95155762 0.29370117 38.08569336 C-0.47030727 43.87923305 -0.47030727 43.87923305 -1 46 C-1.99 46.495 -1.99 46.495 -3 47 C-2.91020874 45.78642822 -2.91020874 45.78642822 -2.81860352 44.54833984 C-2.11664901 34.91124518 -1.51354389 25.27028737 -0.9375 15.625 C-0.8457749 14.09895402 -0.75397839 12.57291233 -0.66210938 11.046875 C-0.44058673 7.3646322 -0.22001764 3.68233307 0 0 Z " fill="#324D77" transform="translate(627,561)"/>
<path d="M0 0 C6.51791392 -0.3540919 11.17521449 -0.03901852 17 3 C16.38125 3.45375 15.7625 3.9075 15.125 4.375 C12.94080167 5.97108919 12.94080167 5.97108919 11 8 C7.68065327 8 6.97512393 7.56290854 4.375 5.6875 C3.76398437 5.25824219 3.15296875 4.82898438 2.5234375 4.38671875 C1 3 1 3 0 0 Z " fill="#1A467F" transform="translate(531,540)"/>
<path d="M0 0 C0.33 0 0.66 0 1 0 C1.02187378 0.83809204 1.02187378 0.83809204 1.04418945 1.69311523 C1.11960798 4.27520052 1.21594881 6.85612184 1.3125 9.4375 C1.33505859 10.31599609 1.35761719 11.19449219 1.38085938 12.09960938 C1.73644928 20.8600515 3.75184616 27.94213794 9 35 C8.67 35.66 8.34 36.32 8 37 C2.79376963 31.23093392 -1.12021328 24.90970342 -1.1328125 16.875 C-1.13410156 16.08609375 -1.13539063 15.2971875 -1.13671875 14.484375 C-1.13285156 13.66453125 -1.12898438 12.8446875 -1.125 12 C-1.12886719 11.18015625 -1.13273437 10.3603125 -1.13671875 9.515625 C-1.13542969 8.72671875 -1.13414062 7.9378125 -1.1328125 7.125 C-1.13168457 6.40570312 -1.13055664 5.68640625 -1.12939453 4.9453125 C-1 3 -1 3 0 0 Z " fill="#D5B78E" transform="translate(385,540)"/>
<path d="M0 0 C0.66 0.33 1.32 0.66 2 1 C-4.73082397 8.19950803 -11.30004771 14.16355975 -20 19 C-21.05380859 19.58587891 -21.05380859 19.58587891 -22.12890625 20.18359375 C-24 21 -24 21 -27 21 C-27 21.66 -27 22.32 -27 23 C-28.32 23 -29.64 23 -31 23 C-31 22.34 -31 21.68 -31 21 C-29.99582031 20.55011719 -28.99164063 20.10023438 -27.95703125 19.63671875 C-17.10742058 14.59701996 -8.46375954 8.46375954 0 0 Z " fill="#D5B88D" transform="translate(343,562)"/>
<path d="M0 0 C4.36431557 1.95001334 5.28500709 4.99854013 6.9375 9.3125 C7.35 10.34375 7.7625 11.375 8.1875 12.4375 C8.98862557 15.50848137 9.08798654 18.15228258 8.9375 21.3125 C6.4594002 18.8344002 5.94453189 16.76402884 4.875 13.4375 C4.36259766 11.86355469 4.36259766 11.86355469 3.83984375 10.2578125 C3.13291898 7.9503611 2.48773282 5.66091637 1.9375 3.3125 C0.2875 3.3125 -1.3625 3.3125 -3.0625 3.3125 C-3.990625 4.983125 -3.990625 4.983125 -4.9375 6.6875 C-6.19531231 8.95156215 -7.20865142 10.45865142 -9.0625 12.3125 C-8.81468511 8.0996468 -8.38873116 5.75990273 -5.875 2.3125 C-3.0625 0.3125 -3.0625 0.3125 0 0 Z " fill="#D3B78F" transform="translate(486.0625,226.6875)"/>
<path d="M0 0 C3.42920642 3.76600348 4.53163083 8.17677183 6 12.9375 C8.64957015 21.69169953 8.64957015 21.69169953 14 29 C12.35 29 10.7 29 9 29 C8.3490741 27.75264433 7.70448331 26.50198168 7.0625 25.25 C6.52302734 24.20585937 6.52302734 24.20585937 5.97265625 23.140625 C5.03396685 21.07475436 4.52279909 19.20147431 4 17 C2.9668248 13.98346037 1.90721777 10.97725715 0.83984375 7.97265625 C0.03933583 5.13923055 -0.1668025 2.92173408 0 0 Z " fill="#D4B68D" transform="translate(508,450)"/>
<path d="M0 0 C3.89861612 2.09925483 6.41361622 4.36734971 9.25 7.75 C13.40859598 12.5166596 17.86205298 16.33177305 23 20 C22.34 20.66 21.68 21.32 21 22 C17.66666667 19.33333333 14.33333333 16.66666667 11 14 C9.63488281 12.94039062 9.63488281 12.94039062 8.2421875 11.859375 C5.94391729 9.95349239 5.10579256 8.72195091 4 6 C3.62875 5.2575 3.2575 4.515 2.875 3.75 C2.58625 3.1725 2.2975 2.595 2 2 C1.34 2 0.68 2 0 2 C0 1.34 0 0.68 0 0 Z " fill="#1D4276" transform="translate(423,691)"/>
<path d="M0 0 C3.11770332 3.11770332 4.07065015 7.09337186 5.5625 11.1875 C5.87896484 12.02603516 6.19542969 12.86457031 6.52148438 13.72851562 C8.28064754 18.51299124 9.49859236 22.92410624 10 28 C9.34 28 8.68 28 8 28 C6.65387303 24.27532752 5.32537729 20.54460125 4 16.8125 C3.6184375 15.75740234 3.236875 14.70230469 2.84375 13.61523438 C2.30234375 12.08286133 2.30234375 12.08286133 1.75 10.51953125 C1.24726563 9.11344604 1.24726563 9.11344604 0.734375 7.67895508 C-0.00366501 4.98663027 -0.14089056 2.77598431 0 0 Z " fill="#D4B78E" transform="translate(494,411)"/>
<path d="M0 0 C0.33 0 0.66 0 1 0 C0.45108667 6.41635173 -1.12551339 11.91872901 -3.375 17.9375 C-3.67921875 18.79923828 -3.9834375 19.66097656 -4.296875 20.54882812 C-4.59851563 21.36673828 -4.90015625 22.18464844 -5.2109375 23.02734375 C-5.48212402 23.76718506 -5.75331055 24.50702637 -6.03271484 25.26928711 C-7 27 -7 27 -10 28 C-3.84328358 6.91791045 -3.84328358 6.91791045 0 0 Z " fill="#D5B78D" transform="translate(441,370)"/>
<path d="M0 0 C0.515625 0.680625 1.03125 1.36125 1.5625 2.0625 C4.0713227 5.08595299 6.76119377 7.75062687 9.609375 10.44921875 C11 12 11 12 11 14 C11.53625 14.2475 12.0725 14.495 12.625 14.75 C15.5823982 16.30652537 18.29724051 18.03435673 21 20 C21 20.66 21 21.32 21 22 C12.3928609 19.10026865 5.33218756 11.15635699 0 4 C0 2.68 0 1.36 0 0 Z " fill="#1A3F73" transform="translate(445,688)"/>
<path d="M0 0 C4.84241247 0.63491514 8.75832422 2.6387137 13.0625 4.8125 C13.76955078 5.15603516 14.47660156 5.49957031 15.20507812 5.85351562 C19.09269149 7.79914748 22.10936604 9.65887763 25 13 C23.35 13 21.7 13 20 13 C20 12.34 20 11.68 20 11 C19.16210938 10.75507812 18.32421875 10.51015625 17.4609375 10.2578125 C13.55573153 8.838539 10.19028729 6.98142234 6.625 4.875 C5.98433594 4.50246094 5.34367187 4.12992188 4.68359375 3.74609375 C3.11951523 2.83565998 1.55934466 1.91851809 0 1 C0 0.67 0 0.34 0 0 Z " fill="#1C4173" transform="translate(424,723)"/>
<path d="M0 0 C3.16115776 1.36983503 3.9927092 1.9890638 6 5 C6.53916146 7.6602023 6.73370098 10.29262663 7 13 C5.68 13.33 4.36 13.66 3 14 C3.33 13.34 3.66 12.68 4 12 C1.26847601 7.27236232 -0.93126149 5.07357484 -6 3 C-6 2.67 -6 2.34 -6 2 C-4.02 2 -2.04 2 0 2 C0 1.34 0 0.68 0 0 Z " fill="#18467C" transform="translate(482,634)"/>
<path d="M0 0 C2.2922454 0.30822621 4.58378455 0.62170874 6.875 0.9375 C8.15117187 1.11152344 9.42734375 1.28554688 10.7421875 1.46484375 C14 2 14 2 16 3 C15.67 3.66 15.34 4.32 15 5 C10.05 4.67 5.1 4.34 0 4 C-0.66 6.31 -1.32 8.62 -2 11 C-2.99 11.495 -2.99 11.495 -4 12 C-3.52546847 7.15977839 -2.62064422 4.06797052 0 0 Z " fill="#D5B891" transform="translate(378,493)"/>
<path d="M0 0 C0.66 0 1.32 0 2 0 C3.00935129 2.8928729 4.00768744 5.78878515 5 8.6875 C5.28617188 9.50412109 5.57234375 10.32074219 5.8671875 11.16210938 C8.42266949 18.67644333 8.42266949 18.67644333 8 23 C6 22 6 22 5.22216797 20.29760742 C4.98127441 19.57420166 4.74038086 18.8507959 4.4921875 18.10546875 C4.22792969 17.31462891 3.96367188 16.52378906 3.69140625 15.70898438 C3.42199219 14.87689453 3.15257812 14.04480469 2.875 13.1875 C2.59785156 12.36701172 2.32070313 11.54652344 2.03515625 10.70117188 C0.76841296 6.85414116 0 4.11756253 0 0 Z " fill="#D4B790" transform="translate(559,435)"/>
<path d="M0 0 C3.76863644 2.51242429 4.37906926 5.13101261 5.6875 9.25 C5.91244141 9.90613281 6.13738281 10.56226563 6.36914062 11.23828125 C7.69001691 15.27719171 8.24358659 18.76027657 8 23 C5.55667033 19.33500549 4.31858597 15.63735885 2.875 11.5 C2.59785156 10.72785156 2.32070313 9.95570313 2.03515625 9.16015625 C1.77347656 8.41636719 1.51179687 7.67257812 1.2421875 6.90625 C1.0035498 6.22884766 0.76491211 5.55144531 0.51904297 4.85351562 C0 3 0 3 0 0 Z " fill="#D5B78F" transform="translate(525,337)"/>
<path d="M0 0 C0.66 0 1.32 0 2 0 C3.00935129 2.8928729 4.00768744 5.78878515 5 8.6875 C5.28617188 9.50412109 5.57234375 10.32074219 5.8671875 11.16210938 C8.42266949 18.67644333 8.42266949 18.67644333 8 23 C5.6902682 19.53540231 4.32427787 15.93533104 2.875 12.0625 C2.59785156 11.34642578 2.32070313 10.63035156 2.03515625 9.89257812 C0.7052272 6.35811152 0 3.82014887 0 0 Z " fill="#D3B68E" transform="translate(549,406)"/>
<path d="M0 0 C2.81083807 2.81083807 3.77143886 6.21585145 5.125 9.875 C5.40214844 10.59558594 5.67929687 11.31617188 5.96484375 12.05859375 C6.22652344 12.75855469 6.48820312 13.45851563 6.7578125 14.1796875 C6.9964502 14.81632324 7.23508789 15.45295898 7.48095703 16.10888672 C8 18 8 18 8 22 C7.34 22 6.68 22 6 22 C4.99018911 19.27411167 3.99196692 16.54487736 3 13.8125 C2.71382813 13.04357422 2.42765625 12.27464844 2.1328125 11.48242188 C0.71215062 7.54177643 -0.40963365 4.25848319 0 0 Z " fill="#D4B58C" transform="translate(465,330)"/>
<path d="M0 0 C0.33 0 0.66 0 1 0 C0.55052002 8.54011956 -2.14908583 16.01533633 -5 24 C-5.33 24 -5.66 24 -6 24 C-5.55052002 15.45988044 -2.85091417 7.98466367 0 0 Z " fill="#16386D" transform="translate(693,616)"/>
<path d="M0 0 C0.33 0 0.66 0 1 0 C2.16782082 5.66802208 1.69512715 9.82488786 0.1875 15.375 C0.00896484 16.09816406 -0.16957031 16.82132813 -0.35351562 17.56640625 C-0.82948141 19.3981013 -1.40718986 21.20271696 -2 23 C-2.66 23.33 -3.32 23.66 -4 24 C-3.28621973 15.86290495 -1.67226118 7.98268072 0 0 Z " fill="#1C4074" transform="translate(684,594)"/>
<path d="M0 0 C0.99 0.33 1.98 0.66 3 1 C2.67 2.32 2.34 3.64 2 5 C1.67 4.67 1.34 4.34 1 4 C-1.60900601 10.64558134 -2.6143354 16.88515313 -3 24 C-3.33 24 -3.66 24 -4 24 C-5.45414996 14.62686473 -4.28121355 8.3567793 0 0 Z " fill="#224778" transform="translate(708,359)"/>
<path d="M0 0 C2.99549387 0.32094577 3.95752249 0.9549481 6.0625 3.1875 C10.56173622 9.71864935 11.41629039 14.1984097 11 22 C10.67 22 10.34 22 10 22 C9.82984375 21.20335937 9.6596875 20.40671875 9.484375 19.5859375 C8.10247199 13.5437871 6.88340779 8.85425973 3 4 C2.4225 3.21625 1.845 2.4325 1.25 1.625 C0.8375 1.08875 0.425 0.5525 0 0 Z " fill="#254271" transform="translate(617,352)"/>
<path d="M0 0 C7.73465096 1.13700865 14.73969251 3.10711152 22 6 C22 6.33 22 6.66 22 7 C14.61901219 6.50793415 7.82135437 4.93451121 1 2 C0.67 1.34 0.34 0.68 0 0 Z " fill="#D5B993" transform="translate(549,486)"/>
<path d="M0 0 C0.66 0 1.32 0 2 0 C0.65686637 4.45706534 -1.10597207 8.28622704 -3.4375 12.3125 C-4.03433594 13.36050781 -4.63117187 14.40851562 -5.24609375 15.48828125 C-7 18 -7 18 -10 19 C-8.05657711 15.03132589 -5.95916091 11.14583435 -3.875 7.25 C-3.50246094 6.55261719 -3.12992188 5.85523438 -2.74609375 5.13671875 C-1.83120092 3.42422705 -0.91566431 1.71207932 0 0 Z " fill="#1D3C6E" transform="translate(609,657)"/>
<path d="M0 0 C3.21107147 1.60553573 3.45574161 4.45419565 4.625 7.75 C5.07101562 8.98234375 5.51703125 10.2146875 5.9765625 11.484375 C6.87700629 14.57750252 7.23061312 16.81996652 7 20 C4.53635837 17.04775906 3.37027655 14.51471001 2.375 10.8125 C1.69429298 7.62672383 1.69429298 7.62672383 0 5 C-0.04063832 3.33382885 -0.042721 1.66611905 0 0 Z " fill="#D5B88E" transform="translate(504,274)"/>
<path d="M0 0 C3.62081961 2.41387974 3.88042919 3.75106541 5.1875 7.8125 C5.53167969 8.85019531 5.87585938 9.88789063 6.23046875 10.95703125 C6.94775458 13.79340515 7.1557742 16.09400539 7 19 C5 18 5 18 4.21875 15.890625 C3.9815625 15.01921875 3.744375 14.1478125 3.5 13.25 C2.70849135 10.4335149 1.91032791 7.77817957 0.8125 5.0625 C0 3 0 3 0 0 Z " fill="#D4B68D" transform="translate(536,369)"/>
<path d="M0 0 C0.66 0 1.32 0 2 0 C2.84334329 2.22582389 3.67478551 4.45496026 4.5 6.6875 C4.73847656 7.31333984 4.97695313 7.93917969 5.22265625 8.58398438 C6.5412725 12.18192299 7.29329235 15.16520253 7 19 C4.3458221 15.84388587 3.07732936 12.84829424 1.8125 8.9375 C1.46832031 7.89464844 1.12414062 6.85179687 0.76953125 5.77734375 C0 3 0 3 0 0 Z " fill="#D6B88F" transform="translate(495,249)"/>
<path d="M0 0 C7.07403834 0.3215472 12.97386577 3.41663627 19 7 C19.33 7.66 19.66 8.32 20 9 C17.00608822 8.34296506 14.40164967 7.35339853 11.625 6.0625 C8.91179062 4.82230363 6.35125978 3.79147636 3.5 2.875 C1 2 1 2 0 0 Z " fill="#264272" transform="translate(453,606)"/>
<path d="M0 0 C3.14878942 1.57439471 3.54022492 4.71527725 4.625 7.875 C4.85445313 8.51308594 5.08390625 9.15117187 5.3203125 9.80859375 C6.32486598 12.67276705 7 14.94250743 7 18 C6.34 18 5.68 18 5 18 C4.15621025 15.94175571 3.32536378 13.87820214 2.5 11.8125 C2.0359375 10.66394531 1.571875 9.51539063 1.09375 8.33203125 C0.09194348 5.28009923 -0.23870804 3.16884928 0 0 Z " fill="#D5B88E" transform="translate(484,384)"/>
<path d="M0 0 C0.66 0 1.32 0 2 0 C0.65856219 4.02431343 -1.99565214 5.36724604 -5.375 7.625 C-5.96539063 8.03234375 -6.55578125 8.4396875 -7.1640625 8.859375 C-9.7556645 10.62213131 -12.01210722 12.00403574 -15 13 C-13.64822277 8.9446683 -10.9185836 7.62502318 -7.5 5.375 C-3.56221508 2.91618508 -3.56221508 2.91618508 0 0 Z " fill="#1A3B6E" transform="translate(636,707)"/>
<path d="M0 0 C2.77643042 0 4.44864529 0.45609603 6.4453125 2.42578125 C10.72020307 8.32513024 10.52977235 13.93636868 10 21 C9.67 21 9.34 21 9 21 C8.99742187 20.38253906 8.99484375 19.76507812 8.9921875 19.12890625 C8.62450423 11.07664256 5.67148766 5.67148766 0 0 Z " fill="#173365" transform="translate(732,504)"/>
<path d="M0 0 C3.14128754 1.57064377 3.57809687 4.66761078 4.6875 7.8125 C4.92533203 8.44220703 5.16316406 9.07191406 5.40820312 9.72070312 C6.63142274 13.13926116 7.43004376 15.55922805 6 19 C0.44419134 6.51480638 0.44419134 6.51480638 0 0 Z " fill="#D5B68B" transform="translate(473,353)"/>
<path d="M0 0 C1.66611905 -0.042721 3.33382885 -0.04063832 5 0 C5.33 0.33 5.66 0.66 6 1 C8.69235776 1.23678716 11.36498156 1.42198025 14.0625 1.5625 C15.20041992 1.62727539 15.20041992 1.62727539 16.36132812 1.69335938 C18.24065438 1.79973633 20.12030244 1.90039934 22 2 C22 2.33 22 2.66 22 3 C14.48751716 3.94450945 7.51248284 3.94450945 0 3 C0 2.01 0 1.02 0 0 Z " fill="#DBBD96" transform="translate(282,591)"/>
<path d="M0 0 C4.62 1.32 9.24 2.64 14 4 C13.01 5.485 13.01 5.485 12 7 C10.5410574 6.52269162 9.08286504 6.04308958 7.625 5.5625 C6.81289063 5.29566406 6.00078125 5.02882813 5.1640625 4.75390625 C3 4 3 4 1 3 C0.67 3.66 0.34 4.32 0 5 C0 3.35 0 1.7 0 0 Z " fill="#727886" transform="translate(512,530)"/>
<path d="M0 0 C6.43681228 0.51085812 11.95942424 1.72942897 18 4 C18 4.66 18 5.32 18 6 C11.68878497 4.9007105 5.93661416 3.41862058 0 1 C0 0.67 0 0.34 0 0 Z " fill="#D3B791" transform="translate(528,492)"/>
<path d="M0 0 C2.97 0.99 5.94 1.98 9 3 C8.071875 3.680625 8.071875 3.680625 7.125 4.375 C4.94080167 5.97108919 4.94080167 5.97108919 3 8 C2.01 8 1.02 8 0 8 C-0.33 7.34 -0.66 6.68 -1 6 C-0.34 5.34 0.32 4.68 1 4 C0.67 2.68 0.34 1.36 0 0 Z " fill="#365780" transform="translate(539,540)"/>
<path d="M0 0 C0.66 0 1.32 0 2 0 C1.57312017 1.89825285 1.13300518 3.79353183 0.6875 5.6875 C0.44386719 6.74324219 0.20023437 7.79898437 -0.05078125 8.88671875 C-0.99260825 11.97575628 -2.22372937 14.31817964 -4 17 C-5.6852084 12.92320841 -4.16939007 10.16924407 -2.5625 6.25 C-2.08941406 5.07953125 -1.61632812 3.9090625 -1.12890625 2.703125 C-0.75636719 1.81109375 -0.38382812 0.9190625 0 0 Z " fill="#D5B88F" transform="translate(425,365)"/>
<path d="M0 0 C1.12864571 2.82503443 0.99492545 4.01633704 0.07421875 6.98046875 C-0.38339844 8.03878906 -0.84101563 9.09710938 -1.3125 10.1875 C-1.76238281 11.25355469 -2.21226562 12.31960938 -2.67578125 13.41796875 C-4 16 -4 16 -6 17 C-6.33 15.68 -6.66 14.36 -7 13 C-6.34 13 -5.68 13 -5 13 C-4.80664062 12.31292969 -4.61328125 11.62585938 -4.4140625 10.91796875 C-4.15367187 10.01691406 -3.89328125 9.11585938 -3.625 8.1875 C-3.36976563 7.29417969 -3.11453125 6.40085937 -2.8515625 5.48046875 C-2 3 -2 3 0 0 Z " fill="#D4B78F" transform="translate(439,331)"/>
<path d="M0 0 C7.46819926 -0.40735632 13.70648143 0.80432095 20 5 C12.87615459 5.66268329 6.69120815 3.25388064 0 1 C0 0.67 0 0.34 0 0 Z " fill="#1B3E6F" transform="translate(449,736)"/>
<path d="M0 0 C-2.03460769 1.01428514 -4.07804606 2.01086789 -6.125 3 C-7.83042969 3.8353125 -7.83042969 3.8353125 -9.5703125 4.6875 C-13.01319533 6.00504969 -15.35669762 6.26577282 -19 6 C-16.07326863 4.04884575 -13.2870104 2.70354342 -10.0625 1.3125 C-9.02222656 0.85488281 -7.98195313 0.39726563 -6.91015625 -0.07421875 C-3.97978311 -1.00643141 -2.80276633 -1.11435288 0 0 Z " fill="#1C3C6F" transform="translate(747,559)"/>
<path d="M0 0 C2.49055871 3.76435592 2.03090984 6.86617377 1.625 11.25 C1.51414062 12.51328125 1.40328125 13.7765625 1.2890625 15.078125 C1.19367188 16.04234375 1.09828125 17.0065625 1 18 C0.34 17.67 -0.32 17.34 -1 17 C-1.18451025 5.47835991 -1.18451025 5.47835991 0 0 Z " fill="#294571" transform="translate(387,649)"/>
<path d="M0 0 C1 3 1 3 -0.109375 5.375 C-0.65078125 6.24125 -1.1921875 7.1075 -1.75 8 C-2.28109375 8.86625 -2.8121875 9.7325 -3.359375 10.625 C-4.77670819 12.67675853 -6.1682778 14.32276039 -8 16 C-7.42070126 11.97387377 -6.14350034 9.19196689 -4 5.75 C-3.46375 4.87859375 -2.9275 4.0071875 -2.375 3.109375 C-1 1 -1 1 0 0 Z " fill="#D6B78D" transform="translate(359,538)"/>
<path d="M0 0 C0.66 0 1.32 0 2 0 C2.67679658 1.725227 3.34102 3.45538939 4 5.1875 C4.37125 6.15042969 4.7425 7.11335938 5.125 8.10546875 C5.97636772 10.92182358 6.17072647 13.08164439 6 16 C1.96190932 11.38503922 0 6.07147123 0 0 Z " fill="#D4B78E" transform="translate(543,389)"/>
<path d="M0 0 C0 0.66 0 1.32 0 2 C-3.3 2.33 -6.6 2.66 -10 3 C-10 3.99 -10 4.98 -10 6 C-8.35 6 -6.7 6 -5 6 C-5 6.33 -5 6.66 -5 7 C-7.31 7 -9.62 7 -12 7 C-12 5.02 -12 3.04 -12 1 C-7.95858806 0.36605303 -4.0934693 -0.12404452 0 0 Z " fill="#2A4271" transform="translate(584,330)"/>
<path d="M0 0 C5 1.66666667 10 3.33333333 15 5 C14.67 5.66 14.34 6.32 14 7 C11.36 6.67 8.72 6.34 6 6 C6 5.34 6 4.68 6 4 C4.35 3.67 2.7 3.34 1 3 C0.67 2.01 0.34 1.02 0 0 Z " fill="#163D75" transform="translate(464,723)"/>
<path d="M0 0 C0.33 0 0.66 0 1 0 C1.125 7.75 1.125 7.75 0 10 C-0.66 10 -1.32 10 -2 10 C-2.33 11.65 -2.66 13.3 -3 15 C-3.33 15 -3.66 15 -4 15 C-3.50341703 9.33895411 -2.45489316 5.12325529 0 0 Z " fill="#12356D" transform="translate(619,632)"/>
<path d="M0 0 C1.98 0 3.96 0 6 0 C6 0.99 6 1.98 6 3 C2.14243493 5.15305957 -0.55129785 6.39253254 -5 6 C-2 4 -2 4 0 4 C0 2.68 0 1.36 0 0 Z " fill="#D5B88E" transform="translate(296,573)"/>
<path d="M0 0 C5.66442374 0.36504064 10.00703705 1.0554321 15 4 C15 4.33 15 4.66 15 5 C9.54520815 4.43179252 5.08940744 3.05362055 0 1 C0 0.67 0 0.34 0 0 Z " fill="#D4B691" transform="translate(550,499)"/>
<path d="M0 0 C0.66 0 1.32 0 2 0 C0.64475824 5.42096702 -1.36634013 10.0778687 -4 15 C-5.3480932 11.339671 -4.6336844 9.33449773 -3.125 5.8125 C-2.75632812 4.93207031 -2.38765625 4.05164063 -2.0078125 3.14453125 C-1 1 -1 1 0 0 Z " fill="#D4B78E" transform="translate(475,241)"/>
<path d="M0 0 C0.66 0 1.32 0 2 0 C1.53411505 5.70709064 0.06242216 9.15939723 -3 14 C-4.37095624 10.30962722 -3.60010967 8.29116165 -2.0625 4.75 C-1.68222656 3.85796875 -1.30195313 2.9659375 -0.91015625 2.046875 C-0.60980469 1.37140625 -0.30945313 0.6959375 0 0 Z " fill="#D6B88F" transform="translate(369,514)"/>
<path d="M0 0 C3.29673633 0.59676022 5.1723181 1.68171774 7.6875 3.875 C8.28949219 4.38804687 8.89148438 4.90109375 9.51171875 5.4296875 C11 7 11 7 12 10 C11.01 10.495 11.01 10.495 10 11 C9.52949219 10.45730469 9.05898438 9.91460938 8.57421875 9.35546875 C7.95160156 8.64003906 7.32898438 7.92460937 6.6875 7.1875 C6.07261719 6.47980469 5.45773437 5.77210938 4.82421875 5.04296875 C3.26665665 3.29863261 1.67341125 1.63221959 0 0 Z " fill="#14386C" transform="translate(750,503)"/>
<path d="M0 0 C0.66 0 1.32 0 2 0 C0.97137215 5.44567686 -0.24614784 10.11817117 -3 15 C-4.43410153 11.21180727 -3.51009497 8.93478721 -2.0625 5.25 C-1.49208984 3.77273438 -1.49208984 3.77273438 -0.91015625 2.265625 C-0.60980469 1.51796875 -0.30945313 0.7703125 0 0 Z " fill="#D6B88E" transform="translate(400,430)"/>
<path d="M0 0 C0.66 0 1.32 0 2 0 C1.37321829 3.66172475 0.35548154 6.8818995 -1.0625 10.3125 C-1.42472656 11.19550781 -1.78695313 12.07851563 -2.16015625 12.98828125 C-2.43730469 13.65214844 -2.71445312 14.31601562 -3 15 C-3.33 15 -3.66 15 -4 15 C-3.43179252 9.54520815 -2.05362055 5.08940744 0 0 Z " fill="#D5B78E" transform="translate(431,349)"/>
<path d="M0 0 C-0.99 0 -1.98 0 -3 0 C-3 0.66 -3 1.32 -3 2 C-8.37625234 2.84888195 -12.65370398 3.0024305 -18 2 C-18 1.67 -18 1.34 -18 1 C-15.75152519 0.63627613 -13.50113812 0.28435904 -11.25 -0.0625 C-9.99703125 -0.25972656 -8.7440625 -0.45695313 -7.453125 -0.66015625 C-4.49983411 -0.95080818 -2.7397586 -0.98935727 0 0 Z " fill="#274C7C" transform="translate(537,720)"/>
<path d="M0 0 C4.96916636 0.51405169 9.29026351 1.23384882 14 3 C14 3.33 14 3.66 14 4 C12.41632253 3.85795259 10.83306682 3.71119847 9.25 3.5625 C8.36828125 3.48128906 7.4865625 3.40007812 6.578125 3.31640625 C4.30649548 3.03761535 2.20148177 2.61209423 0 2 C0 1.34 0 0.68 0 0 Z " fill="#D4B890" transform="translate(442,493)"/>
<path d="M0 0 C0 0.66 0 1.32 0 2 C-1.65 2 -3.3 2 -5 2 C-5.33 2.99 -5.66 3.98 -6 5 C-6 4.34 -6 3.68 -6 3 C-6.99 3.495 -6.99 3.495 -8 4 C-9.99960012 4.039992 -12.00047242 4.04346799 -14 4 C-9.2157506 0.8105004 -5.77575443 -0.26863974 0 0 Z " fill="#D6B992" transform="translate(342,488)"/>
<path d="M0 0 C0.66 0 1.32 0 2 0 C1.57533503 1.77395508 1.1347591 3.54410631 0.6875 5.3125 C0.44386719 6.29863281 0.20023437 7.28476562 -0.05078125 8.30078125 C-1.00049589 11.00141012 -1.81847677 12.20956216 -4 14 C-3.46148032 8.72250715 -2.22656164 4.74354436 0 0 Z " fill="#D5B990" transform="translate(445,314)"/>
<path d="M0 0 C2.30874711 2.16614803 4.05290181 4.39206608 5.75 7.0625 C6.19859375 7.75472656 6.6471875 8.44695313 7.109375 9.16015625 C7.40328125 9.76730469 7.6971875 10.37445312 8 11 C7.67 11.66 7.34 12.32 7 13 C3.66366632 10.00880429 1.75472293 7.12359889 0 3 C0 2.01 0 1.02 0 0 Z " fill="#17376A" transform="translate(417,679)"/>
<path d="M0 0 C4.96916636 0.51405169 9.29026351 1.23384882 14 3 C14 3.66 14 4.32 14 5 C9.16371695 4.00956295 4.52381127 3.04301154 0 1 C0 0.67 0 0.34 0 0 Z " fill="#D2B692" transform="translate(569,505)"/>
<path d="M0 0 C0.33 0 0.66 0 1 0 C1.04241723 2.33294775 1.04092937 4.66702567 1 7 C0.67 7.33 0.34 7.66 0 8 C-0.23427778 10.01594582 -0.41336124 12.038474 -0.5625 14.0625 C-0.64628906 15.16722656 -0.73007812 16.27195312 -0.81640625 17.41015625 C-0.87699219 18.26480469 -0.93757813 19.11945312 -1 20 C-1.33 20 -1.66 20 -2 20 C-2.0544452 17.79194476 -2.09299283 15.58349446 -2.125 13.375 C-2.14820313 12.14523437 -2.17140625 10.91546875 -2.1953125 9.6484375 C-2.0030428 6.05683959 -1.30258556 3.33338825 0 0 Z " fill="#0D2C64" transform="translate(439,652)"/>
<path d="M0 0 C0.66 0 1.32 0 2 0 C1.42365861 4.75481646 -0.55068521 7.97048212 -3 12 C-3.88336837 9.5332355 -4.1312406 8.36140628 -3.22265625 5.859375 C-2.83980469 5.16328125 -2.45695313 4.4671875 -2.0625 3.75 C-1.68222656 3.04359375 -1.30195312 2.3371875 -0.91015625 1.609375 C-0.60980469 1.07828125 -0.30945313 0.5471875 0 0 Z " fill="#173567" transform="translate(670,645)"/>
<path d="M0 0 C0.33 0 0.66 0 1 0 C0.14285714 8.57142857 0.14285714 8.57142857 -2 12 C-2.33 12 -2.66 12 -3 12 C-2.88541307 10.56163249 -2.75790884 9.12429034 -2.625 7.6875 C-2.55539062 6.88699219 -2.48578125 6.08648437 -2.4140625 5.26171875 C-2 3 -2 3 0 0 Z " fill="#D5B890" transform="translate(396,498)"/>
<path d="M0 0 C4.82360189 -0.19294408 8.49646738 0.24252386 13 2 C13 2.33 13 2.66 13 3 C8.07872966 3.16682272 4.49656104 3.24828052 0 1 C0 0.67 0 0.34 0 0 Z " fill="#D2B590" transform="translate(470,477)"/>
<path d="M0 0 C1.9510801 3.90216019 2.2537788 4.67715559 1.75 8.6875 C1.61851562 9.86892578 1.61851562 9.86892578 1.484375 11.07421875 C1.32453125 11.70972656 1.1646875 12.34523438 1 13 C0.01 13.495 0.01 13.495 -1 14 C-0.67 9.38 -0.34 4.76 0 0 Z " fill="#244575" transform="translate(625,594)"/>
<path d="M0 0 C1.0209375 0.433125 1.0209375 0.433125 2.0625 0.875 C5.32893093 2.12597355 8.62846123 3.07447955 12 4 C12 4.66 12 5.32 12 6 C7.43545749 5.45660208 4.0271824 4.20536179 0 2 C0 1.34 0 0.68 0 0 Z " fill="#D4B78F" transform="translate(501,511)"/>
<path d="M0 0 C3.3 0.33 6.6 0.66 10 1 C10.33 1.99 10.66 2.98 11 4 C9.35232753 3.71890887 7.70686855 3.42481474 6.0625 3.125 C4.68771484 2.88136719 4.68771484 2.88136719 3.28515625 2.6328125 C2.53105469 2.42398437 1.77695312 2.21515625 1 2 C0.67 1.34 0.34 0.68 0 0 Z " fill="#D3B690" transform="translate(503,485)"/>
<path d="M0 0 C2 3 2 3 1.625 6.1875 C1.41875 7.115625 1.2125 8.04375 1 9 C0.34 9 -0.32 9 -1 9 C-1 10.98 -1 12.96 -1 15 C-1.66 14.67 -2.32 14.34 -3 14 C-2.01 9.38 -1.02 4.76 0 0 Z " fill="#204B7D" transform="translate(690,361)"/>
<path d="M0 0 C2 3 2 3 3 6.625 C3.33 7.73875 3.66 8.8525 4 10 C4.66 10.33 5.32 10.66 6 11 C5.01 11.33 4.02 11.66 3 12 C0.58314288 7.77050005 -0.34833144 4.87664009 0 0 Z " fill="#1C4275" transform="translate(412,678)"/>
<path d="M0 0 C2.87529818 1.28892677 5.05008298 2.49296383 7 5 C7.6875 7.6875 7.6875 7.6875 8 10 C7.01 10.495 7.01 10.495 6 11 C5.88785156 10.41734375 5.77570312 9.8346875 5.66015625 9.234375 C4.93999124 6.79689343 3.95620605 5.2749414 2.4375 3.25 C1.98246094 2.63640625 1.52742187 2.0228125 1.05859375 1.390625 C0.53458984 0.70226562 0.53458984 0.70226562 0 0 Z " fill="#B2AA97" transform="translate(542,549)"/>
<path d="M0 0 C0.66 0 1.32 0 2 0 C1.40075776 4.19469571 0.42500059 8.00999834 -1 12 C-1.33 12 -1.66 12 -2 12 C-1.85831863 10.56208484 -1.71148957 9.1246763 -1.5625 7.6875 C-1.48128906 6.88699219 -1.40007813 6.08648438 -1.31640625 5.26171875 C-1 3 -1 3 0 0 Z " fill="#1B4376" transform="translate(662,643)"/>
<path d="M0 0 C2.97 0 5.94 0 9 0 C8.67 0.66 8.34 1.32 8 2 C8.66 2.66 9.32 3.32 10 4 C3.375 3.375 3.375 3.375 0 0 Z " fill="#15346A" transform="translate(719,496)"/>
<path d="M0 0 C3.99881788 0.61520275 6.80358226 2.60268669 10 5 C10 5.66 10 6.32 10 7 C5.56541027 5.6062718 3.12621626 3.39417765 0 0 Z " fill="#14366C" transform="translate(456,703)"/>
<path d="M0 0 C0 3.69418201 -1.28179295 5.77836178 -3 9 C-3.33 9 -3.66 9 -4 9 C-3.67 6.36 -3.34 3.72 -3 1 C-2.01 0.67 -1.02 0.34 0 0 Z " fill="#10376F" transform="translate(679,627)"/>
<path d="M0 0 C0.66 0 1.32 0 2 0 C1.34 3.3 0.68 6.6 0 10 C-0.66 10 -1.32 10 -2 10 C-1.54177532 6.53058454 -1.10868317 3.32604951 0 0 Z " fill="#D5B88F" transform="translate(404,419)"/>
<path d="M0 0 C0.515625 0.2475 1.03125 0.495 1.5625 0.75 C-4.8375 4.81153846 -4.8375 4.81153846 -7.875 4.5 C-8.390625 4.2525 -8.90625 4.005 -9.4375 3.75 C-3.0375 -0.31153846 -3.0375 -0.31153846 0 0 Z " fill="#1B3B6D" transform="translate(619.4375,720.25)"/>
<path d="M0 0 C4.31392226 0.4793247 6.16569547 1.7457985 9 5 C4.98525763 5 3.18024863 3.33218233 0 1 C0 0.67 0 0.34 0 0 Z " fill="#1B4378" transform="translate(448,715)"/>
<path d="M0 0 C0.66 0 1.32 0 2 0 C1.32829194 3.8063457 0.27253436 7.35206816 -1 11 C-1.33 11 -1.66 11 -2 11 C-1.85892253 9.54119891 -1.71197585 8.08296449 -1.5625 6.625 C-1.48128906 5.81289063 -1.40007813 5.00078125 -1.31640625 4.1640625 C-1 2 -1 2 0 0 Z " fill="#1E4071" transform="translate(689,629)"/>
<path d="M0 0 C1.15224028 0.92961422 2.29659176 1.8690125 3.4375 2.8125 C4.07558594 3.33457031 4.71367187 3.85664062 5.37109375 4.39453125 C7 6 7 6 8 9 C7.01 9.495 7.01 9.495 6 10 C5.566875 9.236875 5.13375 8.47375 4.6875 7.6875 C3.16247642 5.03713747 3.16247642 5.03713747 1.3125 3.3125 C0.879375 2.879375 0.44625 2.44625 0 2 C0 1.34 0 0.68 0 0 Z " fill="#1B3C70" transform="translate(473,615)"/>
<path d="M0 0 C3.3 0.99 6.6 1.98 10 3 C9.01 3.66 8.02 4.32 7 5 C3.3125 3.625 3.3125 3.625 0 2 C0 1.34 0 0.68 0 0 Z " fill="#314976" transform="translate(594,563)"/>
<path d="M0 0 C0.33 0 0.66 0 1 0 C1 4.62 1 9.24 1 14 C0.01 14.33 -0.98 14.66 -2 15 C-1.34 10.05 -0.68 5.1 0 0 Z " fill="#30557F" transform="translate(740,515)"/>
<path d="M0 0 C3.9492568 0.55105909 7.34920174 1.38935371 11 3 C11 3.33 11 3.66 11 4 C9.54054712 3.91291331 8.08234132 3.80473093 6.625 3.6875 C5.81289063 3.62949219 5.00078125 3.57148438 4.1640625 3.51171875 C2 3 2 3 0 0 Z " fill="#D7B68A" transform="translate(477,503)"/>
<path d="M0 0 C1.258125 0.12375 2.51625 0.2475 3.8125 0.375 C4.87404297 0.47941406 4.87404297 0.47941406 5.95703125 0.5859375 C8 1 8 1 11 3 C3.57142857 3.14285714 3.57142857 3.14285714 0 2 C0 1.34 0 0.68 0 0 Z " fill="#D4B890" transform="translate(537,483)"/>
<path d="M0 0 C1 2 1 2 0.22265625 4.3828125 C-0.16019531 5.28773438 -0.54304688 6.19265625 -0.9375 7.125 C-1.31777344 8.03507812 -1.69804687 8.94515625 -2.08984375 9.8828125 C-2.39019531 10.58148438 -2.69054687 11.28015625 -3 12 C-3.88336837 9.5332355 -4.1312406 8.36140628 -3.22265625 5.859375 C-2.83980469 5.16328125 -2.45695312 4.4671875 -2.0625 3.75 C-1.68222656 3.04359375 -1.30195313 2.3371875 -0.91015625 1.609375 C-0.60980469 1.07828125 -0.30945313 0.5471875 0 0 Z " fill="#D5B78B" transform="translate(417,388)"/>
<path d="M0 0 C-0.3125 1.875 -0.3125 1.875 -1 4 C-1.99 4.66 -2.98 5.32 -4 6 C-4.99 5.67 -5.98 5.34 -7 5 C-2.25 0 -2.25 0 0 0 Z " fill="#1A3C6E" transform="translate(646,700)"/>
<path d="M0 0 C0.33 0 0.66 0 1 0 C1.33 2.64 1.66 5.28 2 8 C0.68 8.33 -0.64 8.66 -2 9 C-1.67 8.34 -1.34 7.68 -1 7 C-1.2784375 6.0409375 -1.2784375 6.0409375 -1.5625 5.0625 C-1.7790625 4.0415625 -1.7790625 4.0415625 -2 3 C-1.34 2.01 -0.68 1.02 0 0 Z " fill="#3F5C7F" transform="translate(487,639)"/>
<path d="M0 0 C0.99 0 1.98 0 3 0 C1.66666667 3.33333333 0.33333333 6.66666667 -1 10 C-2.46726798 6.18510326 -1.43336419 3.70988378 0 0 Z " fill="#D5B991" transform="translate(391,454)"/>
<path d="M0 0 C0.95465783 2.16967689 1.14401212 3.56328793 0.3984375 5.82421875 C-0.35870385 7.5684743 -1.17609198 9.28627131 -2 11 C-2.33 11 -2.66 11 -3 11 C-3.32613618 6.32538149 -2.70582788 3.83325617 0 0 Z " fill="#1C3A70" transform="translate(395,629)"/>
<path d="M0 0 C2.64 1.65 5.28 3.3 8 5 C7.34 5.66 6.68 6.32 6 7 C3.95880212 5.38405168 1.95927063 3.7143618 0 2 C0 1.34 0 0.68 0 0 Z " fill="#143C74" transform="translate(438,706)"/>
<path d="M0 0 C2 2 2 2 2.125 4.625 C2.08375 5.40875 2.0425 6.1925 2 7 C0.68 6.34 -0.64 5.68 -2 5 C-1 2 -1 2 0 0 Z " fill="#12336B" transform="translate(485,636)"/>
<path d="M0 0 C0.33 0.99 0.66 1.98 1 3 C-0.65 4.65 -2.3 6.3 -4 8 C-4 5 -4 5 -3 3 C-2.34 3 -1.68 3 -1 3 C-0.67 2.01 -0.34 1.02 0 0 Z " fill="#2D4876" transform="translate(401,621)"/>
<path d="M0 0 C0 0.66 0 1.32 0 2 C-4.43076923 4.09230769 -4.43076923 4.09230769 -7.3125 3.625 C-7.869375 3.41875 -8.42625 3.2125 -9 3 C-3.375 0 -3.375 0 0 0 Z " fill="#2E4673" transform="translate(423,608)"/>
<path d="M0 0 C6.75 0.875 6.75 0.875 9 2 C8.67 2.99 8.34 3.98 8 5 C7.01 4.34 6.02 3.68 5 3 C3.34450469 2.61500109 1.6777567 2.27206865 0 2 C0 1.34 0 0.68 0 0 Z " fill="#D0BB97" transform="translate(608,591)"/>
<path d="M0 0 C3.91402949 1.26941497 5.79072873 2.51167694 8 6 C5.125 5.8125 5.125 5.8125 2 5 C0.625 2.4375 0.625 2.4375 0 0 Z " fill="#ECD3A0" transform="translate(548,554)"/>
<path d="M0 0 C3.55780196 0.60990891 6.6828589 1.5783681 10 3 C10 3.33 10 3.66 10 4 C4.25 4.125 4.25 4.125 2 3 C2 2.34 2 1.68 2 1 C1.34 0.67 0.68 0.34 0 0 Z " fill="#566C89" transform="translate(526,535)"/>
<path d="M0 0 C1.65 0 3.3 0 5 0 C5 0.33 5 0.66 5 1 C3.35 1 1.7 1 0 1 C0 0.67 0 0.34 0 0 Z " fill="#D2C2AA" transform="translate(523,488)"/>
<path d="M0 0 C4 1 4 1 4 1 Z " fill="#D8C4AB" transform="translate(380,487)"/>
<path d="M0 0 C4 1 4 1 4 1 Z " fill="#DAC6AD" transform="translate(372,487)"/>
<path d="M0 0 C3 1 3 1 3 1 Z " fill="#284F78" transform="translate(488,747)"/>
<path d="M0 0 C0.66 0.66 1.32 1.32 2 2 C1.34 2 0.68 2 0 2 C0 1.34 0 0.68 0 0 Z " fill="#3C6288" transform="translate(617,354)"/>
<path d="M0 0 C2 1 2 1 2 1 Z " fill="#285076" transform="translate(542,747)"/>
<path d="" fill="#496684" transform="translate(0,0)"/>
<path d="" fill="#546C88" transform="translate(0,0)"/>
<path d="M0 0 C2 1 2 1 2 1 Z " fill="#D0BBA0" transform="translate(312,596)"/>
<path d="" fill="#4F6B89" transform="translate(0,0)"/>
<path d="M0 0 C2 1 2 1 2 1 Z " fill="#798592" transform="translate(597,560)"/>
<path d="M0 0 C2 1 2 1 2 1 Z " fill="#9D9B91" transform="translate(534,536)"/>
<path d="M0 0 C2 1 2 1 2 1 Z " fill="#B5AA9E" transform="translate(518,530)"/>
<path d="M0 0 C2 1 2 1 2 1 Z " fill="#B9AEA3" transform="translate(516,529)"/>
<path d="M0 0 C2 1 2 1 2 1 Z " fill="#BDB1A2" transform="translate(525,524)"/>
<path d="M0 0 C2 1 2 1 2 1 Z " fill="#C3B5A1" transform="translate(598,512)"/>
<path d="M0 0 C2 1 2 1 2 1 Z " fill="#CCBBA6" transform="translate(574,504)"/>
<path d="" fill="#697D8D" transform="translate(0,0)"/>
<path d="M0 0 C2 1 2 1 2 1 Z " fill="#2A537E" transform="translate(741,496)"/>
<path d="M0 0 C2 1 2 1 2 1 Z " fill="#D0C2AB" transform="translate(549,496)"/>
<path d="M0 0 C2 1 2 1 2 1 Z " fill="#D3C2AC" transform="translate(440,495)"/>
<path d="M0 0 C2 1 2 1 2 1 Z " fill="#D7C7AC" transform="translate(435,494)"/>
<path d="" fill="#66798C" transform="translate(0,0)"/>
<path d="M0 0 C2 1 2 1 2 1 Z " fill="#D9C5AA" transform="translate(425,492)"/>
<path d="" fill="#556E8A" transform="translate(0,0)"/>
<path d="" fill="#C8BBA4" transform="translate(0,0)"/>
<path d="" fill="#D6C3AA" transform="translate(0,0)"/>
<path d="" fill="#D5C3AA" transform="translate(0,0)"/>
<path d="" fill="#503B22" transform="translate(0,0)"/>
<path d="" fill="#574022" transform="translate(0,0)"/>
<path d="" fill="#284C79" transform="translate(0,0)"/>
<path d="" fill="#275079" transform="translate(0,0)"/>
<path d="" fill="#26507E" transform="translate(0,0)"/>
<path d="" fill="#274D79" transform="translate(0,0)"/>
<path d="" fill="#284C77" transform="translate(0,0)"/>
<path d="" fill="#2A5179" transform="translate(0,0)"/>
<path d="" fill="#284F78" transform="translate(0,0)"/>
<path d="" fill="#2C5178" transform="translate(0,0)"/>
<path d="" fill="#2A507B" transform="translate(0,0)"/>
<path d="" fill="#2E527A" transform="translate(0,0)"/>
<path d="" fill="#2A5179" transform="translate(0,0)"/>
<path d="" fill="#264C7B" transform="translate(0,0)"/>
<path d="" fill="#274C76" transform="translate(0,0)"/>
<path d="" fill="#24497B" transform="translate(0,0)"/>
<path d="" fill="#2F547B" transform="translate(0,0)"/>
<path d="" fill="#255487" transform="translate(0,0)"/>
<path d="" fill="#285683" transform="translate(0,0)"/>
<path d="" fill="#27527F" transform="translate(0,0)"/>
<path d="" fill="#265689" transform="translate(0,0)"/>
<path d="" fill="#33577C" transform="translate(0,0)"/>
<path d="" fill="#2F5B89" transform="translate(0,0)"/>
<path d="" fill="#285989" transform="translate(0,0)"/>
<path d="" fill="#255889" transform="translate(0,0)"/>
<path d="" fill="#255380" transform="translate(0,0)"/>
<path d="" fill="#275686" transform="translate(0,0)"/>
<path d="" fill="#29558A" transform="translate(0,0)"/>
<path d="" fill="#31557B" transform="translate(0,0)"/>
<path d="" fill="#2B5A8B" transform="translate(0,0)"/>
<path d="" fill="#275583" transform="translate(0,0)"/>
<path d="" fill="#285286" transform="translate(0,0)"/>
<path d="" fill="#275284" transform="translate(0,0)"/>
<path d="" fill="#37547C" transform="translate(0,0)"/>
<path d="" fill="#38577D" transform="translate(0,0)"/>
<path d="" fill="#245083" transform="translate(0,0)"/>
<path d="" fill="#2D5B8A" transform="translate(0,0)"/>
<path d="" fill="#3A587A" transform="translate(0,0)"/>
<path d="" fill="#28507C" transform="translate(0,0)"/>
<path d="" fill="#295887" transform="translate(0,0)"/>
<path d="" fill="#2B5887" transform="translate(0,0)"/>
<path d="" fill="#265487" transform="translate(0,0)"/>
<path d="" fill="#2B517F" transform="translate(0,0)"/>
<path d="" fill="#274E81" transform="translate(0,0)"/>
<path d="" fill="#436180" transform="translate(0,0)"/>
<path d="" fill="#2F5A88" transform="translate(0,0)"/>
<path d="" fill="#23558A" transform="translate(0,0)"/>
<path d="" fill="#335D8B" transform="translate(0,0)"/>
<path d="" fill="#466483" transform="translate(0,0)"/>
<path d="" fill="#205385" transform="translate(0,0)"/>
<path d="" fill="#245384" transform="translate(0,0)"/>
<path d="" fill="#205387" transform="translate(0,0)"/>
<path d="" fill="#32547D" transform="translate(0,0)"/>
<path d="" fill="#30567F" transform="translate(0,0)"/>
<path d="" fill="#1F5188" transform="translate(0,0)"/>
<path d="" fill="#3E6189" transform="translate(0,0)"/>
<path d="" fill="#4A6B87" transform="translate(0,0)"/>
<path d="" fill="#2E5B8A" transform="translate(0,0)"/>
<path d="" fill="#205487" transform="translate(0,0)"/>
<path d="" fill="#1F598C" transform="translate(0,0)"/>
<path d="" fill="#2A5783" transform="translate(0,0)"/>
<path d="" fill="#644A29" transform="translate(0,0)"/>
<path d="" fill="#506F8A" transform="translate(0,0)"/>
<path d="" fill="#677B91" transform="translate(0,0)"/>
<path d="" fill="#4F6F8C" transform="translate(0,0)"/>
<path d="" fill="#5A728E" transform="translate(0,0)"/>
<path d="" fill="#6E7F91" transform="translate(0,0)"/>
<path d="" fill="#58718D" transform="translate(0,0)"/>
<path d="" fill="#516C87" transform="translate(0,0)"/>
<path d="" fill="#60778D" transform="translate(0,0)"/>
<path d="" fill="#677E8C" transform="translate(0,0)"/>
<path d="" fill="#848E96" transform="translate(0,0)"/>
<path d="" fill="#2B5685" transform="translate(0,0)"/>
<path d="" fill="#78828F" transform="translate(0,0)"/>
<path d="" fill="#65788C" transform="translate(0,0)"/>
<path d="" fill="#BAAF9E" transform="translate(0,0)"/>
<path d="" fill="#A8A499" transform="translate(0,0)"/>
<path d="" fill="#CEB99D" transform="translate(0,0)"/>
<path d="" fill="#CFBB9C" transform="translate(0,0)"/>
<path d="" fill="#255389" transform="translate(0,0)"/>
<path d="" fill="#C6B9A3" transform="translate(0,0)"/>
<path d="" fill="#CABBA1" transform="translate(0,0)"/>
<path d="" fill="#23548A" transform="translate(0,0)"/>
<path d="" fill="#1A558E" transform="translate(0,0)"/>
<path d="" fill="#60778C" transform="translate(0,0)"/>
<path d="" fill="#5F738A" transform="translate(0,0)"/>
<path d="" fill="#CCB495" transform="translate(0,0)"/>
<path d="" fill="#1C5289" transform="translate(0,0)"/>
<path d="" fill="#778392" transform="translate(0,0)"/>
<path d="" fill="#8C9194" transform="translate(0,0)"/>
<path d="" fill="#A2A39E" transform="translate(0,0)"/>
<path d="" fill="#8F9496" transform="translate(0,0)"/>
<path d="" fill="#1B538B" transform="translate(0,0)"/>
<path d="" fill="#758190" transform="translate(0,0)"/>
<path d="" fill="#808A93" transform="translate(0,0)"/>
<path d="" fill="#9C9B99" transform="translate(0,0)"/>
<path d="" fill="#195188" transform="translate(0,0)"/>
<path d="" fill="#9D9F99" transform="translate(0,0)"/>
<path d="" fill="#9A9993" transform="translate(0,0)"/>
<path d="" fill="#A5A29B" transform="translate(0,0)"/>
<path d="" fill="#23568A" transform="translate(0,0)"/>
<path d="" fill="#999992" transform="translate(0,0)"/>
<path d="" fill="#20568C" transform="translate(0,0)"/>
<path d="" fill="#2F517D" transform="translate(0,0)"/>
<path d="" fill="#AAA79D" transform="translate(0,0)"/>
<path d="" fill="#A3A39D" transform="translate(0,0)"/>
<path d="" fill="#748391" transform="translate(0,0)"/>
<path d="" fill="#CDB599" transform="translate(0,0)"/>
<path d="" fill="#B4AAA1" transform="translate(0,0)"/>
<path d="" fill="#848E93" transform="translate(0,0)"/>
<path d="" fill="#BAB1A1" transform="translate(0,0)"/>
<path d="" fill="#BAB1A2" transform="translate(0,0)"/>
<path d="" fill="#1D508A" transform="translate(0,0)"/>
<path d="" fill="#BCB1A2" transform="translate(0,0)"/>
<path d="" fill="#CBBCA6" transform="translate(0,0)"/>
<path d="" fill="#CCBDA7" transform="translate(0,0)"/>
<path d="" fill="#CCBBA4" transform="translate(0,0)"/>
<path d="" fill="#D5C2A5" transform="translate(0,0)"/>
<path d="" fill="#6E7D8C" transform="translate(0,0)"/>
<path d="" fill="#717E8E" transform="translate(0,0)"/>
<path d="" fill="#29578A" transform="translate(0,0)"/>
<path d="" fill="#D1BFA8" transform="translate(0,0)"/>
<path d="" fill="#2E5980" transform="translate(0,0)"/>
<path d="" fill="#D7C3AB" transform="translate(0,0)"/>
<path d="" fill="#265689" transform="translate(0,0)"/>
<path d="" fill="#225389" transform="translate(0,0)"/>
<path d="" fill="#2F5480" transform="translate(0,0)"/>
<path d="" fill="#D5C3AA" transform="translate(0,0)"/>
<path d="" fill="#D7C6AD" transform="translate(0,0)"/>
<path d="" fill="#D2C2AC" transform="translate(0,0)"/>
<path d="" fill="#D1C2A9" transform="translate(0,0)"/>
<path d="" fill="#D7C5AB" transform="translate(0,0)"/>
<path d="" fill="#DBC7AA" transform="translate(0,0)"/>
<path d="" fill="#D9C7AC" transform="translate(0,0)"/>
<path d="" fill="#D9C8AB" transform="translate(0,0)"/>
<path d="" fill="#DAC7AA" transform="translate(0,0)"/>
<path d="" fill="#C8BAA5" transform="translate(0,0)"/>
<path d="" fill="#DBC9AD" transform="translate(0,0)"/>
<path d="" fill="#64778C" transform="translate(0,0)"/>
<path d="" fill="#D9C6A9" transform="translate(0,0)"/>
<path d="" fill="#DAC7AD" transform="translate(0,0)"/>
<path d="" fill="#D8C6AA" transform="translate(0,0)"/>
<path d="" fill="#D8C8AF" transform="translate(0,0)"/>
<path d="" fill="#D5C3AD" transform="translate(0,0)"/>
<path d="" fill="#D5C6AC" transform="translate(0,0)"/>
<path d="" fill="#D6C4AB" transform="translate(0,0)"/>
<path d="" fill="#D4BFA3" transform="translate(0,0)"/>
<path d="" fill="#D7C5A8" transform="translate(0,0)"/>
<path d="" fill="#D6C4AA" transform="translate(0,0)"/>
<path d="" fill="#D6C5AC" transform="translate(0,0)"/>
<path d="" fill="#5C728B" transform="translate(0,0)"/>
<path d="" fill="#5B748C" transform="translate(0,0)"/>
<path d="" fill="#C9BDA9" transform="translate(0,0)"/>
<path d="" fill="#DAC5AA" transform="translate(0,0)"/>
<path d="" fill="#D9C4A5" transform="translate(0,0)"/>
<path d="" fill="#D7C6AA" transform="translate(0,0)"/>
<path d="" fill="#D6C3A9" transform="translate(0,0)"/>
<path d="" fill="#D8C6AD" transform="translate(0,0)"/>
<path d="" fill="#D9C6AB" transform="translate(0,0)"/>
<path d="" fill="#D6C4A8" transform="translate(0,0)"/>
<path d="" fill="#5B718D" transform="translate(0,0)"/>
<path d="" fill="#D7C6AA" transform="translate(0,0)"/>
<path d="" fill="#51698B" transform="translate(0,0)"/>
<path d="" fill="#D2C0A4" transform="translate(0,0)"/>
<path d="" fill="#D5C1A9" transform="translate(0,0)"/>
<path d="" fill="#D6C4AA" transform="translate(0,0)"/>
<path d="" fill="#D3C0A5" transform="translate(0,0)"/>
<path d="" fill="#D6C3AD" transform="translate(0,0)"/>
<path d="" fill="#47698A" transform="translate(0,0)"/>
<path d="" fill="#CABBA6" transform="translate(0,0)"/>
<path d="" fill="#D6C5A9" transform="translate(0,0)"/>
<path d="" fill="#3E648A" transform="translate(0,0)"/>
<path d="" fill="#D8C4A9" transform="translate(0,0)"/>
<path d="" fill="#D4C2A9" transform="translate(0,0)"/>
<path d="" fill="#3C638C" transform="translate(0,0)"/>
<path d="" fill="#D2BEA3" transform="translate(0,0)"/>
<path d="" fill="#D4C2A8" transform="translate(0,0)"/>
<path d="" fill="#3B6289" transform="translate(0,0)"/>
<path d="" fill="#3A6086" transform="translate(0,0)"/>
<path d="" fill="#3F648A" transform="translate(0,0)"/>
<path d="" fill="#CCBCA5" transform="translate(0,0)"/>
<path d="" fill="#3E6185" transform="translate(0,0)"/>
<path d="" fill="#624A28" transform="translate(0,0)"/>
<path d="" fill="#624D31" transform="translate(0,0)"/>
<path d="" fill="#4D6B8B" transform="translate(0,0)"/>
<path d="" fill="#CABAA3" transform="translate(0,0)"/>
<path d="" fill="#D7C4AA" transform="translate(0,0)"/>
<path d="" fill="#45678B" transform="translate(0,0)"/>
<path d="" fill="#4D698A" transform="translate(0,0)"/>
<path d="" fill="#4C6787" transform="translate(0,0)"/>
<path d="" fill="#D5C4AA" transform="translate(0,0)"/>
<path d="" fill="#D4C5AA" transform="translate(0,0)"/>
<path d="" fill="#2F5886" transform="translate(0,0)"/>
<path d="" fill="#D4C2A9" transform="translate(0,0)"/>
<path d="" fill="#5C758A" transform="translate(0,0)"/>
<path d="" fill="#345980" transform="translate(0,0)"/>
<path d="" fill="#64788B" transform="translate(0,0)"/>
<path d="" fill="#35577C" transform="translate(0,0)"/>
<path d="" fill="#75828E" transform="translate(0,0)"/>
<path d="" fill="#848E95" transform="translate(0,0)"/>
<path d="" fill="#82898F" transform="translate(0,0)"/>
<path d="" fill="#85878F" transform="translate(0,0)"/>
<path d="" fill="#35587E" transform="translate(0,0)"/>
<path d="" fill="#2F557F" transform="translate(0,0)"/>
<path d="" fill="#30567F" transform="translate(0,0)"/>
<path d="" fill="#32567E" transform="translate(0,0)"/>
<path d="" fill="#2F5681" transform="translate(0,0)"/>
<path d="" fill="#7E888C" transform="translate(0,0)"/>
<path d="" fill="#CDBBA4" transform="translate(0,0)"/>
<path d="" fill="#CDBA9E" transform="translate(0,0)"/>
<path d="" fill="#CCBCA3" transform="translate(0,0)"/>
<path d="" fill="#CFBA9D" transform="translate(0,0)"/>
<path d="" fill="#C9B69C" transform="translate(0,0)"/>
<path d="" fill="#C9B594" transform="translate(0,0)"/>
<path d="" fill="#C1AB90" transform="translate(0,0)"/>
<path d="" fill="#7A5931" transform="translate(0,0)"/>
<path d="" fill="#684D28" transform="translate(0,0)"/>
</svg>
